<?xml version="1.0" encoding="UTF-8"?>
<!DOCTYPE svg  PUBLIC '-//W3C//DTD SVG 1.1//EN'  'http://www.w3.org/Graphics/SVG/1.1/DTD/svg11.dtd'>
<svg enable-background="new 0 0 263.6665039 74" version="1.1" viewBox="0 0 263.67 74" xml:space="preserve" xmlns="http://www.w3.org/2000/svg" xmlns:xlink="http://www.w3.org/1999/xlink">

<g fill="#fff">
	
		<path d="m51.133 33.929v-2.0156c0-8.7119 0-13.608-1.2241-14.832h2.9521c5.5439 0 9.5044-0.14404 12.024-0.14404 0.14404 0 0.64844 0.071777 1.6562 0.071777l0.35986 4.5361c-0.93604-2.4482-3.6719-2.6641-8.6396-2.6641h-2.6641c-0.28809 1.5122-0.43213 4.896-0.43213 10.152v1.3677h11.88c-2.2319 2.5923-5.7598 2.5923-10.656 2.5923-0.21631 0-0.64795-0.072266-1.2241-0.072266v3.168c0 5.2559 0.14404 8.7119 0.43213 10.152h2.7358c5.3999 0 8.7119-0.57617 10.728-3.3125l-0.79199 4.8242c-1.2241 0.21582-2.8799 0.43164-4.752 0.43164-2.52 0-5.688-0.14355-9.7202-0.14355h-3.8882c1.1523-1.2236 1.2241-5.832 1.2241-14.112z" clip-rule="evenodd" fill-rule="evenodd"/>
		<path d="m53.798 48.141h-4.1235l0.16064-0.16895c1.1035-1.1387 1.2085-5.7725 1.1982-14.043v-2.0156c0.010254-8.7021-0.026856-13.629-1.1943-14.761l-0.1709-0.1709h3.1934c5.542 0 9.5015-0.14404 12.023-0.14404 0.1626 0 0.65039 0.071777 1.6572 0.071777h0.090332l0.36865 4.6284-0.19336 0.042969c-0.89551-2.3696-3.5679-2.6021-8.5464-2.6001h-2.5801c-0.27637 1.5337-0.41504 4.8911-0.41504 10.053v1.2681h11.778 0.21826l-0.14209 0.16455c-2.2749 2.6372-5.8408 2.625-10.73 2.627-0.2207 0-0.60498-0.063477-1.124-0.071289v3.0669c-0.0024414 5.1558 0.13867 8.5835 0.4126 10.051h2.6548c5.3979 0 8.6655-0.5791 10.648-3.2715l0.1792 0.076172-0.80273 4.8916-0.072266 0.014648c-1.2271 0.21582-2.8882 0.43359-4.7681 0.43359-2.5239 1e-7 -5.6904-0.14355-9.7197-0.14355zm0-0.2002c4.0332 0 7.2036 0.14258 9.7197 0.14258 1.8281 0 3.4521-0.20605 4.6641-0.41602l0.71777-4.3682c-2.0693 2.5107-5.3735 3.042-10.566 3.042h-2.8184l-0.016602-0.080078c-0.29004-1.46-0.43213-4.9141-0.43213-10.172v-3.2671h0.098633c0.58252 0 1.0254 0.071777 1.2251 0.071777 4.7939 0.0024414 8.2368-0.0097656 10.432-2.3921h-11.657-0.098633v-1.4678c0-5.2603 0.14209-8.6411 0.43213-10.17l0.014648-0.08252h2.748c4.604 0.0019531 7.3452 0.17432 8.4961 2.2222l-0.30908-3.8945c-0.94922-0.0039063-1.4419-0.071289-1.5635-0.071289-2.5161 0-6.479 0.14404-12.023 0.14404h-2.7378c1.1333 1.5303 1.0991 6.3535 1.1094 14.732v2.0156c-0.010254 7.9639-0.046387 12.507-1.1162 14.012h3.6812v-1e-7z"/>
	
	
		<path d="m1.5254 41.562c1.7998 3.168 4.6802 4.8955 8.2798 4.8955 3.6724 0 6.0483-2.5918 6.0483-5.9033 0-2.8809-1.728-4.7529-4.896-6.5527-4.8242-2.7358-8.4238-4.6079-8.4238-9.4316 0-4.4644 3.5996-8.0645 9.5757-8.0645 2.3765 0 4.0322 0.21582 4.896 0.21582h0.86426 1.1519v5.04c-1.1519-2.0156-3.312-3.168-6.0479-3.168-4.104 0-6.1919 2.0884-6.1919 4.896 0 3.4565 2.7358 4.896 6.3354 6.9121 4.6802 2.5923 7.0566 5.1118 7.0566 8.856 0 4.9688-4.3203 9.3604-10.512 9.3604-2.52 0-5.1841-0.64844-8.1362-1.7998v-5.2559z" clip-rule="evenodd" fill-rule="evenodd"/>
		<path d="m1.4888 46.909-0.063476-0.024414v-5.7012l0.18701 0.32715c1.7871 3.1416 4.6265 4.8428 8.1924 4.8447 3.6216-0.0039063 5.9443-2.541 5.9482-5.8018-0.0019531-2.835-1.686-4.6675-4.8442-6.4668-4.814-2.728-8.4746-4.6284-8.4746-9.5186 0.0083008-4.5234 3.6587-8.1553 9.6748-8.1636 2.3818 0 4.0459 0.21631 4.896 0.21631h0.86475 1.252v5.5156l-0.1875-0.32715c-1.1323-1.981-3.2529-3.1152-5.9604-3.1172-4.0728 0.0083008-6.0864 2.0464-6.0923 4.7974-0.0019531 3.3848 2.6743 4.8013 6.2837 6.8228 4.688 2.5923 7.1094 5.1494 7.1074 8.9443-0.010254 5.0273-4.3711 9.4502-10.612 9.46-2.5366 1e-7 -5.2129-0.65234-8.1719-1.8076zm8.1719 1.6064c6.144 0 10.412-4.3506 10.412-9.2588 0-3.6938-2.3306-6.1768-7.0044-8.769-3.5889-2.0098-6.3848-3.4736-6.3867-6.998 0.0058594-2.8662 2.1558-4.9932 6.292-4.9971 2.6235-0.0019531 4.7397 1.0522 5.9482 2.9141v-4.5859h-1.0522-0.86475c-0.87695-0.0019531-2.5244-0.21631-4.896-0.21631-5.936 0.0043945-9.4731 3.5576-9.4751 7.9639-0.0019531 4.7583 3.5371 6.6011 8.3735 9.3452 3.1768 1.8018 4.9478 3.7104 4.9453 6.6401-0.0058594 3.3604-2.4253 5.9971-6.1479 6.002-3.5093 0.0019533-6.3555-1.6348-8.1797-4.6279v4.8213c2.9209 1.1309 5.5522 1.7666 8.0356 1.7666z"/>
	
	
		<path d="m92.461 41.272-5.2559-19.151c-2.6641 10.8-5.9761 19.296-7.6318 26.208h-4.0322c-2.376-19.368-5.5439-29.88-6.8398-31.248h2.9517c2.1602 0 2.4482 0.35986 3.2402 4.248 1.8721 9.5039 2.8799 17.137 3.6719 22.968l4.6079-14.184c1.4399-4.6802 2.0161-8.064 2.0161-9.5044 0-1.2959-0.43213-2.4478-1.2241-3.5278h7.9922c-0.64795 1.0078-1.0801 1.9438-1.0801 3.0239 0 0.50391 0.14404 1.584 0.57617 3.168l5.4717 21.024 3.2402-13.68c1.2959-5.2559 1.7998-8.6401 1.7998-10.08 0-1.5122-0.21582-2.52-0.86377-3.4561h6.1919c-2.8799 3.168-5.3281 13.68-9.3599 31.248h-3.8882c-0.35986-2.5918-1.0078-4.8965-1.584-7.0566z" clip-rule="evenodd" fill-rule="evenodd"/>
		<path d="m93.958 48.429-0.012207-0.085938c-0.35791-2.583-1.0044-4.8828-1.5806-7.0439h-4.883e-4l-5.1553-18.782c-2.6499 10.629-5.9053 19.013-7.5396 25.834l-0.018555 0.078125h-4.2002l-0.010254-0.087891c-2.3652-19.351-5.5605-29.893-6.8125-31.191l-0.15869-0.16895h3.1831c2.1885-0.024902 2.5776 0.45703 3.3374 4.3296 1.8276 9.2725 2.8325 16.766 3.6143 22.541l4.4727-13.768c1.437-4.6714 2.0117-8.0562 2.0117-9.4751 0-1.272-0.42236-2.4004-1.2046-3.4688l-0.11719-0.15869h8.373l-0.098633 0.1543c-0.64453 1.0029-1.0645 1.917-1.0645 2.9688 0 0.48828 0.14209 1.5649 0.57227 3.144l5.3716 20.633 3.1479-13.288c1.2949-5.252 1.7974-8.6367 1.7954-10.057 0-1.5049-0.21191-2.4829-0.84619-3.3994l-0.10693-0.15625h6.6064l-0.15039 0.16699c-2.8428 3.1147-5.3096 13.64-9.3364 31.203l-0.018555 0.078125h-4.0542v1e-7zm3.895-0.20117c3.96-17.234 6.3735-27.646 9.2212-31.047h-5.7876c0.58203 0.91309 0.7793 1.9189 0.77734 3.356 0 1.4595-0.50439 4.8442-1.8018 10.104l-3.2402 13.679-0.19385 0.0019531-5.4722-21.022c-0.43262-1.5913-0.57861-2.6743-0.57861-3.1953 0-1.0513 0.40088-1.9653 0.99756-2.9233h-7.6167c0.73096 1.0483 1.1304 2.1738 1.1304 3.4277 0 1.4619-0.57861 4.8467-2.02 9.5366l-4.6094 14.181-0.19385-0.015625c-0.79053-5.8311-1.7993-13.461-3.6709-22.96-0.82324-3.9072-1.0107-4.144-3.1416-4.1689h-2.7417c1.4048 1.9556 4.4116 12.347 6.7188 31.047h3.8652c1.6636-6.9102 4.9614-15.379 7.6133-26.131l0.09082-0.3667 5.3589 19.516-0.09668 0.026367 0.09668-0.026367c0.56836 2.1357 1.2104 4.418 1.5732 6.9814h3.7217v-1e-7z"/>
	
	
		<path d="m162.88 19.025c5.7607 1.3682 8.9287 6.1919 8.9287 13.68 0 7.2725-3.168 12.024-8.9287 13.248v2.1602c8.5674-1.1523 13.752-7.4883 13.752-16.992 0-8.856-5.04-14.544-13.752-14.616v2.52zm-8.4961 0c1.5127-0.2876 3.0244-0.43213 4.6807-0.43213 1.3672 0 2.6641 0.14453 3.8154 0.43213v-2.52h-0.21582c-3.0957 0-6.5527 0.57617-10.439 0.57617h-3.457c1.1523 1.2236 1.1523 6.1201 1.1523 14.832v2.0156c0 8.2803 0 12.889-1.1523 14.112h3.168c2.3047 0 4.9688 0.28809 8.1367 0.28809 1.0078 0 1.9434-0.072266 2.8076-0.21582v-2.1602c-0.93652 0.21582-2.0166 0.28809-3.168 0.28809-4.0322 0-5.2559-0.36035-5.4717-2.0156-0.14453-1.0088-0.2168-3.7441-0.2168-8.1367v-7.0557c-1e-7 -5.04 0.072266-8.3521 0.36035-10.008z" clip-rule="evenodd" fill-rule="evenodd"/>
		<path d="m151.93 48.141h-3.4023l0.16113-0.16992c1.1016-1.1367 1.1348-5.7715 1.124-14.043v-2.0156c0.010742-8.7012-0.024414-13.628-1.124-14.763l-0.15918-0.16943h3.6875c3.877 0 7.333-0.57471 10.44-0.57471h0.2168 0.099609v9.766e-4c8.6982 0.10645 13.762 5.854 13.752 14.714 0.0058594 9.5254-5.208 15.919-13.798 17.085l-0.039062 0.0058594c-0.87012 0.14453-1.8105 0.2168-2.8223 0.2168-3.1748 0-5.8418-0.28711-8.1367-0.28711zm0-0.20117c2.3115 0 4.9746 0.28809 8.1367 0.28809 0.9707 0 1.8701-0.066406 2.707-0.2002v-1.9502c-0.91797 0.19629-1.9619 0.2627-3.0684 0.2627-4.0146 0.0097656-5.3418-0.36426-5.5713-2.1006-0.14648-1.0254-0.2168-3.7568-0.2168-8.1514v-7.0557c0-5.042 0.070312-8.3521 0.36133-10.024l0.012695-0.068359 0.06543-0.01416c1.5195-0.2876 3.0391-0.43213 4.7012-0.43213 1.3262 0 2.5869 0.13477 3.7158 0.40381v-2.2935h-0.11621c-3.084 0-6.543 0.57666-10.44 0.57666h-3.25c1.0684 1.5259 1.0371 6.3477 1.0469 14.732v2.0156c-0.0097656 7.9619 0.020508 12.505-1.0449 14.012h2.9609zm11.044 0.058594c8.4512-1.1914 13.545-7.4521 13.551-16.878-0.0097656-8.7827-4.9492-14.392-13.551-14.515v2.3408c5.7627 1.4014 8.9346 6.2783 8.9287 13.758 0.0058594 7.2671-3.167 12.073-8.9287 13.33v1.9648zm-8.8564-18.966v7.0557c0 4.3906 0.072266 7.1299 0.21484 8.124 0.20312 1.5713 1.3232 1.9189 5.373 1.9297 1.1152 0 2.1602-0.069336 3.0684-0.26855v-0.0029297l0.078125-0.016602c0.037109-0.0078125 0.073242-0.015625 0.11035-0.023438l0.011719-0.0029297c5.6328-1.2559 8.7217-5.9277 8.7285-13.124-0.0068359-7.4087-3.0977-12.152-8.7285-13.552v4.883e-4l-0.12402-0.030762-0.076172-0.018555c-1.125-0.27295-2.3857-0.41162-3.7158-0.41162-1.627 0-3.1104 0.14062-4.5947 0.41992-0.27539 1.6626-0.3457 4.9536-0.3457 9.9209z"/>
	
	
		<path d="m178.5 41.562c1.7285 3.168 4.6797 4.8955 8.208 4.8955 3.6719 0 6.0479-2.5918 6.0479-5.9033 0-2.8809-1.7285-4.7529-4.8965-6.5527-4.8232-2.7358-8.3516-4.6079-8.3516-9.4316 0-4.4644 3.5283-8.0645 9.5039-8.0645 2.377 0 4.0322 0.21582 4.8965 0.21582h0.86328 1.1523v5.04c-1.1523-2.0156-3.2402-3.168-6.0479-3.168-4.0322 0-6.1924 2.0884-6.1924 4.896 0 3.4565 2.7363 4.896 6.3359 6.9121 4.6807 2.5923 7.0566 5.1118 7.0566 8.856 0 4.9688-4.3203 9.3604-10.512 9.3604-2.5205 0-5.1846-0.64844-8.0645-1.7998v-5.2559z" clip-rule="evenodd" fill-rule="evenodd"/>
		<path d="m178.46 46.91-0.0625-0.026367v-5.7041l0.18848 0.33203c1.7139 3.1396 4.624 4.8428 8.1201 4.8457 3.6221-0.0048828 5.9434-2.543 5.9473-5.8037-0.0019531-2.835-1.6865-4.6685-4.8447-6.4653-4.8125-2.7295-8.4023-4.6299-8.4023-9.519 0.0087891-4.522 3.5879-8.1567 9.6045-8.165 2.3809 0 4.0449 0.21729 4.8965 0.21533h0.8623 1.252v5.521l-0.18652-0.33154c-1.1357-1.9814-3.1787-3.1147-5.96-3.1172-4.002 0.0083008-6.0889 2.0479-6.0938 4.7959-0.0019531 3.3882 2.6738 4.8037 6.2842 6.8247 4.6895 2.5923 7.1104 5.1479 7.1084 8.9443-0.010742 5.0273-4.373 9.4502-10.611 9.459-2.5381 0-5.2139-0.65137-8.1025-1.8057zm8.1025 1.6064c6.1426-0.0019531 10.412-4.3525 10.412-9.2598-0.0019531-3.6929-2.333-6.1777-7.0068-8.7686-3.5869-2.0103-6.3828-3.4731-6.3867-7.0005 0.0078125-2.8662 2.2295-4.9907 6.2939-4.9946 2.6885-0.0019531 4.7451 1.0522 5.9473 2.9116l-0.0019531-4.584h-1.0508-0.8623c-0.87793-0.0019531-2.5234-0.21582-4.8965-0.21582-5.9375 0.0043945-9.4014 3.5566-9.4053 7.9644 0 4.7588 3.4678 6.6011 8.3008 9.3447 3.1768 1.8013 4.9502 3.71 4.9482 6.6396-0.0058594 3.3594-2.4268 5.9961-6.1484 6.002-3.4355 0.0019531-6.3418-1.6279-8.1074-4.6143v4.8066c2.8486 1.1328 5.4785 1.7686 7.9639 1.7686z"/>
	
	
		<path d="m231.49 33.929v-2.0156c0-8.7119 0-13.608-1.1523-14.832h6.1924c-1.0801 1.1519-1.1523 5.6157-1.1523 13.608v3.7441c0 7.9917 0.072266 12.457 1.1523 13.608h-6.1924c1.0801-1.2236 1.1523-5.832 1.1523-14.112z" clip-rule="evenodd" fill-rule="evenodd"/>
		<path d="m230.12 48.14 0.14941-0.16504c1.0332-1.1406 1.1357-5.7764 1.127-14.045v-2.0156c0.010742-8.7041-0.025391-13.629-1.124-14.764l-0.15918-0.16846h6.6553l-0.16016 0.16846c-1.0283 1.0645-1.1348 5.5562-1.124 13.54v3.7437c-0.010742 7.9819 0.095703 12.473 1.124 13.538l0.16309 0.16895h-6.6514v1e-7zm6.209-0.2002c-1-1.4385-1.0371-5.835-1.0449-13.506v-3.7437c0.0078125-7.6748 0.044922-12.068 1.0449-13.509h-5.7783c1.0684 1.5269 1.0352 6.3501 1.0459 14.733v2.0156c-0.0087891 7.9673-0.046875 12.509-1.0527 14.01h5.7852z"/>
	
	
		<path d="m243.3 33.929v-2.0156c0-8.7119 0-13.608-1.2236-14.832h1.5117c3.8887 0 7.0566-0.43213 9.5039-0.43213 5.9766 0 9 2.8081 9 8.2798 0 5.7603-3.6719 9.6484-8.8555 9.6484-1.8008 0-3.3848-0.36035-4.752-1.0801h0.50391c5.1836 0 8.2793-3.0962 8.2793-8.3521 0-4.4639-2.0156-6.5522-6.2637-6.5522-0.93555 0-2.0156 0-3.168 0.21631-0.28809 1.3677-0.43164 6.1919-0.43164 14.4 0 8.7842 0 13.608 1.1523 14.832h-6.4805c1.1523-1.2236 1.2236-5.832 1.2236-14.112z" clip-rule="evenodd" fill-rule="evenodd"/>
		<path d="m241.84 48.141 0.16113-0.16895c1.1025-1.1387 1.207-5.7715 1.1973-14.043v-2.0156c0.0097656-8.7036-0.025391-13.629-1.1953-14.761l-0.16699-0.17139h1.751c3.8809 0 7.0449-0.43213 9.5029-0.43213 6.0078 0.0083008 9.0908 2.8657 9.0996 8.3799-0.0087891 5.8027-3.7168 9.7378-8.9551 9.7485-1.8125 0-3.415-0.36377-4.7979-1.0928l0.045898-0.18799h0.50391c5.1426-0.010254 8.1689-3.0366 8.1787-8.2505-0.016602-4.4346-1.9521-6.4375-6.1631-6.4541-0.91504 0-1.9648 0.0019531-3.082 0.20264-0.27734 1.4268-0.41895 6.2388-0.41699 14.314-0.010742 8.7744 0.022461 13.629 1.124 14.764l0.16211 0.16895h-6.9492v1e-7zm6.5078-0.2002c-1.0674-1.5244-1.0352-6.2803-1.0449-14.732 0-8.2129 0.1416-13.027 0.43359-14.42l0.012695-0.064941 0.067383-0.012695c1.1631-0.21729 2.249-0.21729 3.1855-0.21729 4.2832 0.0063477 6.3574 2.1577 6.3643 6.6528-0.0087891 5.2974-3.1543 8.4429-8.3799 8.4512h-0.077148c1.2627 0.58545 2.7031 0.87939 4.3252 0.87939 5.1299-0.0039063 8.75-3.8306 8.7559-9.5479-0.014648-5.4287-2.9551-8.165-8.9004-8.1792-2.4346 0-5.6074 0.43213-9.5029 0.43213h-1.2969c1.1309 1.5308 1.0986 6.3535 1.1084 14.732v2.0156c-0.0097656 7.9629-0.044922 12.506-1.1152 14.012h6.0645v1e-7z"/>
	
	
		<path d="m228.33 30.257h-5.1123c0-7.7041 0.072266-12.024 1.1523-13.176h-6.3369c1.1523 1.3682 1.2246 5.1841 1.2246 11.952v1.2241h-13.968v-1.2241c0-6.7681 0-10.584 1.1514-11.952h-6.3359c1.1523 1.2236 1.1523 6.1201 1.1523 14.832v2.0156c0 8.2803-0.072266 12.889-1.1523 14.112h6.3359c-1.1514-1.3682-1.1514-5.2559-1.1514-11.952v-3.312c11.664 0 12.096 0.072266 12.384 0.072266h1.584v3.2397c0 6.6963-0.14453 10.584-1.2246 11.952h6.3369c-1.0801-1.1514-1.1523-5.6162-1.1523-13.608v-1.8003c2.1602-0.21582 3.8154-0.86377 5.1123-2.3755z" clip-rule="evenodd" fill-rule="evenodd"/>
		<path d="m217.82 48.142 0.12891-0.16309c1.043-1.3018 1.2109-5.2002 1.2031-11.891v-3.1392h-1.4834c-0.29297 0-0.71582-0.072266-12.284-0.072754v3.2119c-0.0068359 6.6924 0.018555 10.593 1.1289 11.889l0.1377 0.16504h-6.7734l0.14746-0.16699c1.0342-1.1416 1.1357-5.7744 1.1279-14.046v-2.0161c0.0097656-8.7036-0.025391-13.63-1.126-14.764l-0.15527-0.16846h6.7773l-0.13574 0.16406c-1.1104 1.2964-1.1357 5.124-1.1289 11.889v1.1235h13.768v-1.1235c0.0078125-6.7651-0.087891-10.591-1.2002-11.889l-0.1377-0.16406h6.7822l-0.1582 0.16846c-1.0254 1.0625-1.1357 5.3755-1.126 13.008h5.0137v0.099609-0.099609h0.21387l-0.13867 0.16406c-1.2969 1.5142-2.96 2.1763-5.0889 2.4019v1.709c-0.0097656 7.9819 0.095703 12.475 1.126 13.539l0.16016 0.1709h-6.7783v-1e-7zm6.3369-0.20215c-0.99902-1.4434-1.0342-5.8379-1.0439-13.507v-1.8892l0.088867-0.010254c2.0664-0.20801 3.6465-0.80566 4.9014-2.1758h-4.8906-0.099609v-0.1001c0.0097656-7.3945 0.045898-11.648 1.0449-13.077h-5.9287c1.0713 1.5522 1.1162 5.3232 1.124 11.854v1.3232h-0.099609-13.97-0.099609v-1.3232c0.0058594-6.5303-0.014648-10.3 1.0518-11.854h-5.9287c1.0674 1.5269 1.0352 6.3496 1.0449 14.732v2.0161c-0.0078125 7.9668-0.046875 12.511-1.0508 14.011h5.9346c-1.0664-1.5566-1.0439-5.3906-1.0518-11.852v-3.4116h0.099609c11.663 0 12.104 0.072754 12.385 0.072754h1.585 0.099609v3.3389c-0.0078125 6.4648-0.12012 10.3-1.1309 11.852h5.9346v1e-7z"/>
	
	
		<path d="m121.98 48.041c-1.6558-2.5205-3.8882-7.5596-6.624-15.336 2.376-0.21631 4.248-0.86377 5.5439-2.4478h-6.3359c-1.0078-2.8804-2.0161-6.0483-3.168-9.5762 0-0.14404-0.071777-0.43213-0.14404-0.57617-0.071777-0.28809-0.071777-0.43164-0.071777-0.57617-0.14404-1.0078 0-1.728 0.35986-2.4478h-6.8398c0.21582 0.50391 1.5117 0.79199 1.5117 0.79199l4.1763 12.384h-9.5762v2.5195c8.7842 0 9.2158 0.072266 9.5039 0.072266h0.93604l5.4722 15.192h5.2559z" clip-rule="evenodd" fill-rule="evenodd"/>
		<path d="m116.65 48.14-5.4712-15.192h-0.86572c-0.29639 0-0.71826-0.071777-9.5034-0.071777h-0.10059v-2.7197h0.10059 9.4365l-4.1162-12.202c-0.25391-0.064453-1.2783-0.31641-1.5259-0.83447l-0.057617-0.14014h7.1499l-0.069824 0.14404c-0.26367 0.52295-0.40527 1.0381-0.40527 1.6763 0 0.22021 0.018066 0.45703 0.055176 0.72852 0 0.14404 0 0.27002 0.062012 0.53125 0.080078 0.16699 0.15234 0.44873 0.14795 0.58887 1.144 3.501 2.146 6.6475 3.145 9.5073h6.2656 0.20996l-0.13379 0.16455c-1.2939 1.583-3.1553 2.2427-5.4834 2.4707 2.7148 7.7036 4.9321 12.701 6.5708 15.193l-0.084473 0.055664v-0.10059 0.10059l0.084473-0.055664 0.10498 0.15527h-5.5156v1e-7zm-6.3369-15.392h0.93701 0.067871l5.4722 15.191h5.002c-1.6543-2.584-3.8506-7.5781-6.5337-15.202l-0.041504-0.12158 0.12598-0.010254c2.2812-0.21045 4.0723-0.81152 5.3379-2.25h-6.1206-0.071777l-0.022949-0.065918c-1.0088-2.8823-2.0151-6.0508-3.1724-9.6084 0.0019531-0.11719-0.069824-0.41162-0.14209-0.55371-0.074219-0.29443-0.074219-0.45508-0.071777-0.58447-0.039551-0.26562-0.057617-0.5127-0.057617-0.74316 0-0.61035 0.12646-1.1226 0.35645-1.6206h-6.4966c0.33398 0.34668 1.3418 0.59717 1.3491 0.59521l0.053711 0.012207 4.2407 12.569h-0.13965-9.4766v2.3203c8.6846 4.883e-4 9.1255 0.071777 9.4043 0.071777z"/>
	
	
		<path d="m142.86 41.633-5.6875-7.5596c3.5996-1.2964 5.9043-4.6079 5.9043-9 0-5.4722-3.168-8.2803-9.3604-8.2803-2.52 0-5.832 0.43213-9.8638 0.43213h-1.584c1.2959 1.2241 1.2959 6.1196 1.2959 14.76v1.9438c0 8.2803-0.071777 12.889-1.2959 14.112h6.7681c-1.2241-1.2959-1.2241-6.0479-1.2241-14.76 0-8.2075 0.14404-12.96 0.43213-14.328 1.2241-0.21582 2.3037-0.21582 3.3125-0.21582 4.3916 0 6.4795 2.0156 6.4795 6.4795 0 5.2563-3.6719 8.208-9.0723 8.208v0.28809c0.93604 0.14404 1.6562 0.28809 2.0884 0.36035 2.0161 0.64746 2.6636 1.5117 3.8872 3.168 1.5127 2.2324 6.625 9.5039 6.625 9.5039 0.79102 1.0078 1.2949 1.2959 2.5195 1.2959h4.248c-1.2959-1.1514-3.0957-3.2402-5.4727-6.4082z" clip-rule="evenodd" fill-rule="evenodd"/>
		<path d="m141.48 46.801c-0.0029297 0-5.1143-7.2705-6.626-9.502-1.2285-1.6582-1.8418-2.4868-3.8218-3.1274-0.43457-0.072266-1.1538-0.21631-2.0869-0.36035l-0.084473-0.012695v-0.47363h0.098633c5.3652-0.010254 8.9658-2.9048 8.9727-8.1069-0.016602-4.4316-2.0215-6.3643-6.3789-6.3809-0.99072 0-2.0415 0-3.2295 0.20264-0.27539 1.4272-0.41699 6.1685-0.41504 14.242-0.010254 8.7041 0.022949 13.48 1.1953 14.689l0.1626 0.16895h-7.248l0.17529-0.1709c1.1699-1.1377 1.2773-5.7686 1.2671-14.041v-1.9429c0.010254-8.6323-0.028809-13.556-1.2651-14.688l-0.18115-0.17285h1.8335c4.0259 0 7.3325-0.43262 9.8643-0.43262 6.2197 0.0083008 9.4502 2.8613 9.459 8.3809 0.0019531 4.3735-2.2764 7.7046-5.8428 9.0469l5.6055 7.4512-0.078125 0.060547-0.080078 0.05957-5.7695-7.666 0.12793-0.047852c3.5586-1.2832 5.835-4.5469 5.8369-8.9043-0.012695-5.4268-3.0967-8.1665-9.2588-8.1812-2.5093 0-5.8262 0.43262-9.8643 0.43262h-1.3618c1.1978 1.5352 1.1626 6.3545 1.1743 14.661v1.9429c-0.0097656 7.9604-0.044434 12.503-1.1807 14.011h6.3423c-1.1353-1.5713-1.1055-6.2646-1.1133-14.658 0-8.2139 0.14209-12.957 0.43262-14.35l0.014648-0.065918 0.065918-0.012207c1.2339-0.21631 2.3218-0.21631 3.3311-0.21631 4.4238 0.0058594 6.5723 2.0806 6.5781 6.5806-0.0078125 5.2759-3.6914 8.2612-9.0708 8.3062v0.10205c0.89648 0.14014 1.5874 0.27979 2.019 0.35156 2.0371 0.65137 2.7168 1.5493 3.9395 3.2061 1.5098 2.2305 6.6152 9.4932 6.6191 9.5 0.79297 0.99707 1.2324 1.248 2.4414 1.2559h3.9873c-1.2871-1.1895-3.0273-3.2314-5.291-6.248l0.080078-0.05957 0.078125-0.060547c2.375 3.165 4.1738 5.252 5.46 6.3936l0.19727 0.1748h-4.5117-0.045898c-1.208-1e-7 -1.7725-0.32813-2.5537-1.3389z"/>
	
</g>

	<g fill="#FCB034">
		<path d="m34.726 17.005v31.176h3.3838c-1.0078-1.1523-1.728-5.4717-1.728-13.248 0-3.4561 0.072266-7.272 0.21582-16.272 7.2002 0 9.7202 0.86377 10.728 1.7998v-3.5996 0.14355h-12.6z" clip-rule="evenodd" fill-rule="evenodd"/>
		<path d="m34.625 48.279v-31.374l12.6-0.0019531v-0.041504h0.19971v3.8276l-0.16846-0.15479c-0.95752-0.89746-3.4424-1.7686-10.562-1.7744-0.14307 8.9302-0.21436 12.729-0.21436 16.172-0.0063477 7.7632 0.73682 12.095 1.7046 13.182l0.146 0.16504h-3.7056v-1e-7zm0.19971-0.2002h3.0815c-0.97803-1.4131-1.6182-5.6807-1.626-13.147 0-3.457 0.072266-7.2739 0.21631-16.273l0.0019531-0.098633h0.098633c6.8472 0.0019531 9.48 0.77344 10.627 1.6821v-3.1377h-12.4v30.974zm-0.098633-30.974v-0.10107 0.10107z"/>
	</g>
	<g fill="#FCB034">
		<path d="m47.325 17.005v-3.4556c-1.0078 0.86377-3.5278 1.6558-10.944 1.6558v-1.0801c0-7.1279 0.79248-11.088 1.728-12.168h-3.3838v15.048h12.6z" clip-rule="evenodd" fill-rule="evenodd"/>
		<path d="m34.625 17.104v-15.247h3.7041l-0.14355 0.16602c-0.89844 1.0195-1.7109 4.9863-1.7046 12.103v0.97803c7.3315-0.0029297 9.8203-0.80127 10.778-1.6304l0.16602-0.14355v3.7739h-12.8v1e-7zm12.7-0.098633v-0.10059 0.10059zm-12.501-0.10059h12.4v-3.1484c-1.1484 0.83984-3.7852 1.5449-10.844 1.5488h-0.10059v-1.1792c0.0058594-6.8325 0.71387-10.746 1.6284-12.07h-3.0825l-0.0019532 14.849z"/>
	</g>
	<g fill="#FCB034">
		<path d="m34.726 17.005v-15.048h-3.3838c0.93604 1.0801 1.6558 5.7598 1.6558 13.32-8.208 0-10.368-0.79199-11.376-1.7275v3.312l13.104 0.14355z" clip-rule="evenodd" fill-rule="evenodd"/>
		<path d="m21.522 16.959v-3.6387l0.16602 0.15576c0.96191 0.89697 3.0854 1.6958 11.208 1.7002 0.0014648-7.4863-0.74023-12.148-1.6304-13.155l-0.14355-0.16406h3.7017v15.249l-13.302-0.14746zm13.202 0.044922 0.0024414-0.098144-0.0024414 0.098144zm-13.003-0.2417 12.905 0.14209-0.0019532-14.848h-3.0845c0.9126 1.3867 1.5503 5.9683 1.5586 13.22v0.098633h-0.10059c-7.7979-0.0019531-10.159-0.70654-11.276-1.6084v2.9951z"/>
	</g>
	<g fill="#FCB034">
		<path d="m21.622 16.861v3.5996c1.0078-0.93604 3.168-1.728 11.232-1.728 0.14404 8.5679 0.21631 17.28 0.21631 17.28 0 7.1289-0.79199 11.088-1.728 12.168h3.3838v-31.176l-13.104-0.14355z" clip-rule="evenodd" fill-rule="evenodd"/>
		<path d="m31.119 48.279 0.14648-0.16504c0.89746-1.0195 1.7109-4.9863 1.7046-12.102 0-0.016113-0.071777-8.6436-0.21436-17.18-7.9795 0.0043945-10.106 0.80225-11.066 1.7021l-0.16895 0.15479v-3.9307l13.304 0.14648v31.374h-3.7061zm3.5063-0.2002v-30.976l-12.905-0.14111v3.2808c1.1167-0.90234 3.4697-1.6084 11.132-1.6104h0.098633l0.0019531 0.099121c0.14404 8.5684 0.21631 17.279 0.21631 17.281-0.0058594 6.8262-0.71191 10.737-1.625 12.066h3.0806v1e-7zm-13.005-31.118 0.0019531-0.099121-0.0019531 0.099121z"/>
	</g>
	
		
			<defs>
				<path id="c" d="m34.797 1.957h-0.071777 0.071777z"/>
			</defs>
			<defs>
				<path id="b" d="m34.725 2.0557v-0.19873h0.071777v0.19873h-0.071777v1e-7zm0.071777-0.098145v-0.10059 0.10059zm0-0.10059v0.10059-0.10059z"/>
			</defs>
			<use clip-rule="evenodd" fill="#FCB034" fill-rule="evenodd" overflow="visible" xlink:href="#c"/>
			<use fill="#FCB034" overflow="visible" xlink:href="#b"/>
			<clipPath id="d">
				<use overflow="visible" xlink:href="#c"/>
			</clipPath>
			<clipPath id="a" clip-path="url(#d)">
				<use overflow="visible" xlink:href="#b"/>
			</clipPath>
			<g clip-path="url(#a)" fill="#FCB034">
				<polygon points="34.726 1.8848 34.797 1.8848 34.797 2.0288 34.726 2.0288 34.726 1.8848 34.726 1.8848 34.797 1.8848 34.797 1.957 34.726 1.957" clip-rule="evenodd" fill-rule="evenodd"/>
				<polygon points="34.798 2.1274 34.626 2.1274 34.626 2.0557 34.626 1.9575 34.626 1.8838 34.626 1.7837 34.727 1.7837 34.896 1.7837 34.896 1.8838 34.896 2.1274"/>
			</g>
			<g clip-path="url(#a)" fill="#FCB034">
				<polygon points="34.726 1.8848 34.797 1.8848 34.797 1.957 34.726 1.957 34.726 1.8848 34.726 1.8848 34.797 1.8848 34.797 1.957 34.726 1.957" clip-rule="evenodd" fill-rule="evenodd"/>
				<polygon points="34.796 2.0557 34.625 2.0557 34.625 1.9575 34.625 1.8838 34.625 1.7852 34.725 1.7852 34.896 1.7852 34.896 1.8838 34.896 2.0557"/>
			</g>
			<g clip-path="url(#a)" fill="#FCB034">
				<polygon points="34.726 1.8848 34.797 1.8848 34.797 1.957 34.726 1.957 34.726 1.8848 34.726 1.8848 34.797 1.8848 34.797 1.957 34.726 1.957" clip-rule="evenodd" fill-rule="evenodd"/>
				<polygon points="34.796 2.0557 34.625 2.0557 34.625 1.9575 34.625 1.8838 34.625 1.7852 34.725 1.7852 34.896 1.7852 34.896 1.8838 34.896 2.0557"/>
			</g>
			<g clip-path="url(#a)" fill="#FCB034">
				<polygon points="34.726 1.8848 34.797 1.8848 34.797 1.957 34.726 1.957 34.726 1.8848 34.726 1.8848 34.797 1.8848 34.797 1.957 34.726 1.957" clip-rule="evenodd" fill-rule="evenodd"/>
				<polygon points="34.796 2.0557 34.625 2.0557 34.625 1.9575 34.625 1.8838 34.625 1.7852 34.725 1.7852 34.896 1.7852 34.896 1.8838 34.896 2.0557"/>
			</g>
			<g clip-path="url(#a)" fill="#FCB034">
				<polygon points="34.726 1.8848 34.797 1.8848 34.797 1.957 34.726 1.957 34.726 1.8848 34.726 1.8848 34.797 1.8848 34.797 1.957 34.726 1.957" clip-rule="evenodd" fill-rule="evenodd"/>
				<polygon points="34.796 2.0557 34.625 2.0557 34.625 1.9575 34.625 1.8838 34.625 1.7852 34.725 1.7852 34.896 1.7852 34.896 1.8838 34.896 2.0557"/>
			</g>
			<g clip-path="url(#a)" fill="#FCB034">
				<polygon points="34.726 1.8848 34.797 1.8848 34.797 1.957 34.726 1.957 34.726 1.8848 34.726 1.8848 34.797 1.8848 34.797 1.957 34.726 1.957" clip-rule="evenodd" fill-rule="evenodd"/>
				<polygon points="34.796 2.0557 34.625 2.0557 34.625 1.9575 34.625 1.8838 34.625 1.7852 34.725 1.7852 34.896 1.7852 34.896 1.8838 34.896 2.0557"/>
			</g>
			<g clip-path="url(#a)" fill="#FCB034">
				<polygon points="34.726 1.8848 34.797 1.8848 34.797 1.957 34.726 1.957 34.726 1.8848 34.726 1.8848 34.797 1.8848 34.797 1.957 34.726 1.957" clip-rule="evenodd" fill-rule="evenodd"/>
				<polygon points="34.796 2.0557 34.625 2.0557 34.625 1.9575 34.625 1.8838 34.625 1.7852 34.725 1.7852 34.896 1.7852 34.896 1.8838 34.896 2.0557"/>
			</g>
			<g clip-path="url(#a)" fill="#FCB034">
				<polygon points="34.726 1.8848 34.797 1.8848 34.797 1.957 34.726 1.957 34.726 1.8848 34.726 1.8848 34.797 1.8848 34.797 1.957 34.726 1.957" clip-rule="evenodd" fill-rule="evenodd"/>
				<polygon points="34.796 2.0557 34.625 2.0557 34.625 1.9575 34.625 1.8838 34.625 1.7852 34.725 1.7852 34.896 1.7852 34.896 1.8838 34.896 2.0557"/>
			</g>
			<g clip-path="url(#a)" fill="#FCB034">
				<polygon points="34.726 1.8848 34.797 1.8848 34.797 1.957 34.726 1.957 34.726 1.8848 34.726 1.8848 34.797 1.8848 34.797 1.957 34.726 1.957" clip-rule="evenodd" fill-rule="evenodd"/>
				<polygon points="34.796 2.0557 34.625 2.0557 34.625 1.9575 34.625 1.8838 34.625 1.7852 34.725 1.7852 34.896 1.7852 34.896 1.8838 34.896 2.0557"/>
			</g>
			<g clip-path="url(#a)" fill="#FCB034">
				<polygon points="34.726 1.8848 34.797 1.8848 34.797 1.957 34.726 1.957 34.726 1.8848 34.726 1.8848 34.797 1.8848 34.797 1.957 34.726 1.957" clip-rule="evenodd" fill-rule="evenodd"/>
				<polygon points="34.796 2.0557 34.625 2.0557 34.625 1.9575 34.625 1.8838 34.625 1.7852 34.725 1.7852 34.896 1.7852 34.896 1.8838 34.896 2.0557"/>
			</g>
			<g clip-path="url(#a)" fill="#FCB034">
				<polygon points="34.726 1.8848 34.797 1.8848 34.797 1.957 34.726 1.957 34.726 1.8848 34.726 1.8848 34.797 1.8848 34.797 1.957 34.726 1.957" clip-rule="evenodd" fill-rule="evenodd"/>
				<polygon points="34.796 2.0557 34.625 2.0557 34.625 1.9575 34.625 1.8838 34.625 1.7852 34.725 1.7852 34.896 1.7852 34.896 1.8838 34.896 2.0557"/>
			</g>
			<g clip-path="url(#a)" fill="#FCB034">
				<polygon points="34.726 1.8848 34.797 1.8848 34.797 1.957 34.726 1.957 34.726 1.8848 34.726 1.8848 34.797 1.8848 34.797 1.957 34.726 1.957" clip-rule="evenodd" fill-rule="evenodd"/>
				<polygon points="34.796 2.0557 34.625 2.0557 34.625 1.9575 34.625 1.8838 34.625 1.7852 34.725 1.7852 34.896 1.7852 34.896 1.8838 34.896 2.0557"/>
			</g>
			<g clip-path="url(#a)" fill="#FCB034">
				<polygon points="34.726 1.8848 34.797 1.8848 34.797 1.957 34.726 1.957 34.726 1.8848 34.726 1.8848 34.797 1.8848 34.797 1.957 34.726 1.957" clip-rule="evenodd" fill-rule="evenodd"/>
				<polygon points="34.796 2.0557 34.625 2.0557 34.625 1.9575 34.625 1.8838 34.625 1.7852 34.725 1.7852 34.896 1.7852 34.896 1.8838 34.896 2.0557"/>
			</g>
			<g clip-path="url(#a)" fill="#FCB034">
				<polygon points="34.726 1.8848 34.797 1.8848 34.797 1.957 34.726 1.957 34.726 1.8848 34.726 1.8848 34.797 1.8848 34.797 1.957 34.726 1.957" clip-rule="evenodd" fill-rule="evenodd"/>
				<polygon points="34.796 2.0557 34.625 2.0557 34.625 1.9575 34.625 1.8838 34.625 1.7852 34.725 1.7852 34.896 1.7852 34.896 1.8838 34.896 2.0557"/>
			</g>
			<g clip-path="url(#a)" fill="#FCB034">
				<polygon points="34.726 1.8848 34.797 1.8848 34.797 1.957 34.726 1.957 34.726 1.8848 34.726 1.8848 34.797 1.8848 34.797 1.957 34.726 1.957" clip-rule="evenodd" fill-rule="evenodd"/>
				<polygon points="34.796 2.0557 34.625 2.0557 34.625 1.9575 34.625 1.8838 34.625 1.7852 34.725 1.7852 34.896 1.7852 34.896 1.8838 34.896 2.0557"/>
			</g>
			<g clip-path="url(#a)" fill="#FCB034">
				<polygon points="34.726 1.8848 34.797 1.8848 34.797 1.957 34.726 1.957 34.726 1.8848 34.726 1.8848 34.797 1.8848 34.797 1.957 34.726 1.957" clip-rule="evenodd" fill-rule="evenodd"/>
				<polygon points="34.796 2.0557 34.625 2.0557 34.625 1.9575 34.625 1.8838 34.625 1.7852 34.725 1.7852 34.896 1.7852 34.896 1.8838 34.896 2.0557"/>
			</g>
			<g clip-path="url(#a)" fill="#FCB034">
				<polygon points="34.726 1.8848 34.797 1.8848 34.797 1.957 34.726 1.957 34.726 1.8848 34.726 1.8848 34.797 1.8848 34.797 1.957 34.726 1.957" clip-rule="evenodd" fill-rule="evenodd"/>
				<polygon points="34.796 2.0557 34.625 2.0557 34.625 1.9575 34.625 1.8838 34.625 1.7852 34.725 1.7852 34.896 1.7852 34.896 1.8838 34.896 2.0557"/>
			</g>
			<g clip-path="url(#a)" fill="#FCB034">
				<polygon points="34.726 1.8848 34.797 1.8848 34.797 1.957 34.726 1.957 34.726 1.8848 34.726 1.8848 34.797 1.8848 34.797 1.957 34.726 1.957" clip-rule="evenodd" fill-rule="evenodd"/>
				<polygon points="34.796 2.0557 34.625 2.0557 34.625 1.9575 34.625 1.8838 34.625 1.7852 34.725 1.7852 34.896 1.7852 34.896 1.8838 34.896 2.0557"/>
			</g>
			<g clip-path="url(#a)" fill="#FCB034">
				<polygon points="34.726 1.8848 34.797 1.8848 34.797 1.957 34.726 1.957 34.726 1.8848 34.726 1.8848 34.797 1.8848 34.797 1.957 34.726 1.957" clip-rule="evenodd" fill-rule="evenodd"/>
				<polygon points="34.796 2.0557 34.625 2.0557 34.625 1.9575 34.625 1.8838 34.625 1.7852 34.725 1.7852 34.896 1.7852 34.896 1.8838 34.896 2.0557"/>
			</g>
			<g clip-path="url(#a)" fill="#FCB034">
				<polygon points="34.726 1.8848 34.797 1.8848 34.797 1.957 34.726 1.957 34.726 1.8848 34.726 1.8848 34.797 1.8848 34.797 1.957 34.726 1.957" clip-rule="evenodd" fill-rule="evenodd"/>
				<polygon points="34.796 2.0557 34.625 2.0557 34.625 1.9575 34.625 1.8838 34.625 1.7852 34.725 1.7852 34.896 1.7852 34.896 1.8838 34.896 2.0557"/>
			</g>
			<g clip-path="url(#a)" fill="#FCB034">
				<polygon points="34.726 1.8848 34.797 1.8848 34.797 1.957 34.726 1.957 34.726 1.8848 34.726 1.8848 34.797 1.8848 34.797 1.957 34.726 1.957" clip-rule="evenodd" fill-rule="evenodd"/>
				<polygon points="34.796 2.0557 34.625 2.0557 34.625 1.9575 34.625 1.8838 34.625 1.7852 34.725 1.7852 34.896 1.7852 34.896 1.8838 34.896 2.0557"/>
			</g>
			<g clip-path="url(#a)" fill="#FCB034">
				<polygon points="34.726 1.8848 34.797 1.8848 34.797 1.957 34.726 1.957 34.726 1.8848 34.726 1.8848 34.797 1.8848 34.797 1.957 34.726 1.957" clip-rule="evenodd" fill-rule="evenodd"/>
				<polygon points="34.796 2.0557 34.625 2.0557 34.625 1.9575 34.625 1.8838 34.625 1.7852 34.725 1.7852 34.896 1.7852 34.896 1.8838 34.896 2.0557"/>
			</g>
			<g clip-path="url(#a)" fill="#FCB034">
				<polygon points="34.726 1.8848 34.797 1.8848 34.797 1.957 34.726 1.957 34.726 1.8848 34.726 1.8848 34.797 1.8848 34.797 1.957 34.726 1.957" clip-rule="evenodd" fill-rule="evenodd"/>
				<polygon points="34.796 2.0557 34.625 2.0557 34.625 1.9575 34.625 1.8838 34.625 1.7852 34.725 1.7852 34.896 1.7852 34.896 1.8838 34.896 2.0557"/>
			</g>
			<g clip-path="url(#a)" fill="#FCB034">
				<polygon points="34.726 1.8848 34.797 1.8848 34.797 1.957 34.726 1.957 34.726 1.8848 34.726 1.8848 34.797 1.8848 34.797 1.957 34.726 1.957" clip-rule="evenodd" fill-rule="evenodd"/>
				<polygon points="34.796 2.0557 34.625 2.0557 34.625 1.9575 34.625 1.8838 34.625 1.7852 34.725 1.7852 34.896 1.7852 34.896 1.8838 34.896 2.0557"/>
			</g>
			<g clip-path="url(#a)" fill="#FCB034">
				<polygon points="34.726 1.8848 34.797 1.8848 34.797 1.957 34.726 1.957 34.726 1.8848 34.726 1.8848 34.797 1.8848 34.797 1.957 34.726 1.957" clip-rule="evenodd" fill-rule="evenodd"/>
				<polygon points="34.796 2.0557 34.625 2.0557 34.625 1.9575 34.625 1.8838 34.625 1.7852 34.725 1.7852 34.896 1.7852 34.896 1.8838 34.896 2.0557"/>
			</g>
			<g clip-path="url(#a)" fill="#FCB034">
				<polygon points="34.726 1.8848 34.797 1.8848 34.797 1.957 34.726 1.957 34.726 1.8848 34.726 1.8848 34.797 1.8848 34.797 1.957 34.726 1.957" clip-rule="evenodd" fill-rule="evenodd"/>
				<polygon points="34.796 2.0557 34.625 2.0557 34.625 1.9575 34.625 1.8838 34.625 1.7852 34.725 1.7852 34.896 1.7852 34.896 1.8838 34.896 2.0557"/>
			</g>
			<g clip-path="url(#a)" fill="#FCB034">
				<polygon points="34.726 1.8848 34.797 1.8848 34.797 1.957 34.726 1.957 34.726 1.8848 34.726 1.8848 34.797 1.8848 34.797 1.957 34.726 1.957" clip-rule="evenodd" fill-rule="evenodd"/>
				<polygon points="34.796 2.0557 34.625 2.0557 34.625 1.9575 34.625 1.8838 34.625 1.7852 34.725 1.7852 34.896 1.7852 34.896 1.8838 34.896 2.0557"/>
			</g>
			<g clip-path="url(#a)" fill="#FCB034">
				<polygon points="34.726 1.8848 34.797 1.8848 34.797 1.957 34.726 1.957 34.726 1.8848 34.726 1.8848 34.797 1.8848 34.797 1.957 34.726 1.957" clip-rule="evenodd" fill-rule="evenodd"/>
				<polygon points="34.796 2.0557 34.625 2.0557 34.625 1.9575 34.625 1.8838 34.625 1.7852 34.725 1.7852 34.896 1.7852 34.896 1.8838 34.896 2.0557"/>
			</g>
			<g clip-path="url(#a)" fill="#FCB034">
				<polygon points="34.726 1.8848 34.797 1.8848 34.797 1.957 34.726 1.957 34.726 1.8848 34.726 1.8848 34.797 1.8848 34.797 1.957 34.726 1.957" clip-rule="evenodd" fill-rule="evenodd"/>
				<polygon points="34.796 2.0557 34.625 2.0557 34.625 1.9575 34.625 1.8838 34.625 1.7852 34.725 1.7852 34.896 1.7852 34.896 1.8838 34.896 2.0557"/>
			</g>
			<g clip-path="url(#a)" fill="#FCB034">
				<polygon points="34.726 1.8848 34.797 1.8848 34.797 1.957 34.726 1.957 34.726 1.8848 34.726 1.957 34.797 1.957 34.797 1.957 34.726 1.957 34.726 1.957" clip-rule="evenodd" fill-rule="evenodd"/>
				<polygon points="34.796 2.0557 34.625 2.0557 34.625 1.9575 34.625 1.8838 34.625 1.7852 34.725 1.7852 34.896 1.7852 34.896 1.8838 34.896 2.0557"/>
			</g>
			<g clip-path="url(#a)" fill="#FCB034">
				<polygon points="34.726 1.8848 34.797 1.8848 34.797 1.957 34.726 1.957 34.726 1.8848 34.726 1.957 34.797 1.957 34.797 1.957 34.726 1.957 34.726 1.957" clip-rule="evenodd" fill-rule="evenodd"/>
				<polygon points="34.796 2.0557 34.625 2.0557 34.625 1.9575 34.625 1.8838 34.625 1.7852 34.725 1.7852 34.896 1.7852 34.896 1.8838 34.896 2.0557"/>
			</g>
			<g clip-path="url(#a)" fill="#FCB034">
				<polygon points="34.726 1.957 34.797 1.957 34.797 1.957 34.726 1.957 34.726 1.957 34.726 1.957 34.797 1.957 34.797 1.957 34.726 1.957" clip-rule="evenodd" fill-rule="evenodd"/>
				<path d="m34.725 2.0557v-0.19873h0.071777v0.19873h-0.071777zm0-0.098145v0.098144-0.098144z"/>
			</g>
			<g clip-path="url(#a)" fill="#FCB034">
				<polygon points="34.726 1.957 34.797 1.957 34.797 1.957 34.726 1.957 34.726 1.957 34.726 1.957 34.797 1.957 34.797 1.957 34.726 1.957" clip-rule="evenodd" fill-rule="evenodd"/>
				<path d="m34.725 2.0557v-0.19873h0.071777v0.19873h-0.071777zm0-0.098145v0.098144-0.098144z"/>
			</g>
			<g clip-path="url(#a)" fill="#FCB034">
				<polygon points="34.726 1.957 34.797 1.957 34.797 1.957 34.726 1.957 34.726 1.957 34.726 1.957 34.797 1.957 34.797 1.957 34.726 1.957" clip-rule="evenodd" fill-rule="evenodd"/>
				<path d="m34.725 2.0557v-0.19873h0.071777v0.19873h-0.071777zm0-0.098145v0.098144-0.098144z"/>
			</g>
			<g clip-path="url(#a)" fill="#FCB034">
				<polygon points="34.726 1.957 34.797 1.957 34.797 1.957 34.726 1.957 34.726 1.957 34.726 1.957 34.797 1.957 34.797 1.957 34.726 1.957" clip-rule="evenodd" fill-rule="evenodd"/>
				<path d="m34.725 2.0557v-0.19873h0.071777v0.19873h-0.071777zm0-0.098145v0.098144-0.098144z"/>
			</g>
			<g clip-path="url(#a)" fill="#FCB034">
				<polygon points="34.726 1.957 34.797 1.957 34.797 1.957 34.726 1.957 34.726 1.957 34.726 1.957 34.797 1.957 34.797 1.957 34.726 1.957" clip-rule="evenodd" fill-rule="evenodd"/>
				<path d="m34.725 2.0557v-0.19873h0.071777v0.19873h-0.071777zm0-0.098145v0.098144-0.098144z"/>
			</g>
			<g clip-path="url(#a)" fill="#FCB034">
				<polygon points="34.726 1.957 34.797 1.957 34.797 1.957 34.726 1.957 34.726 1.957 34.726 1.957 34.797 1.957 34.797 1.957 34.726 1.957" clip-rule="evenodd" fill-rule="evenodd"/>
				<path d="m34.725 2.0557v-0.19873h0.071777v0.19873h-0.071777zm0-0.098145v0.098144-0.098144z"/>
			</g>
			<g clip-path="url(#a)" fill="#FCB034">
				<polygon points="34.726 1.957 34.797 1.957 34.797 1.957 34.726 1.957 34.726 1.957 34.726 1.957 34.797 1.957 34.797 1.957 34.726 1.957" clip-rule="evenodd" fill-rule="evenodd"/>
				<path d="m34.725 2.0557v-0.19873h0.071777v0.19873h-0.071777zm0-0.098145v0.098144-0.098144z"/>
			</g>
			<g clip-path="url(#a)" fill="#FCB034">
				<polygon points="34.726 1.957 34.797 1.957 34.797 1.957 34.726 1.957 34.726 1.957 34.726 1.957 34.797 1.957 34.797 1.957 34.726 1.957" clip-rule="evenodd" fill-rule="evenodd"/>
				<path d="m34.725 2.0557v-0.19873h0.071777v0.19873h-0.071777zm0-0.098145v0.098144-0.098144z"/>
			</g>
			<g clip-path="url(#a)" fill="#FCB034">
				<polygon points="34.726 1.957 34.797 1.957 34.797 1.957 34.726 1.957 34.726 1.957 34.726 1.957 34.797 1.957 34.797 1.957 34.726 1.957" clip-rule="evenodd" fill-rule="evenodd"/>
				<path d="m34.725 2.0557v-0.19873h0.071777v0.19873h-0.071777zm0-0.098145v0.098144-0.098144z"/>
			</g>
			<g clip-path="url(#a)" fill="#FCB034">
				<polygon points="34.726 1.957 34.797 1.957 34.797 1.957 34.726 1.957 34.726 1.957 34.726 1.957 34.797 1.957 34.797 1.957 34.726 1.957" clip-rule="evenodd" fill-rule="evenodd"/>
				<path d="m34.725 2.0557v-0.19873h0.071777v0.19873h-0.071777zm0-0.098145v0.098144-0.098144z"/>
			</g>
			<g clip-path="url(#a)" fill="#FCB034">
				<polygon points="34.726 1.957 34.797 1.957 34.797 1.957 34.726 1.957 34.726 1.957 34.726 1.957 34.797 1.957 34.797 1.957 34.726 1.957" clip-rule="evenodd" fill-rule="evenodd"/>
				<path d="m34.725 2.0557v-0.19873h0.071777v0.19873h-0.071777zm0-0.098145v0.098144-0.098144z"/>
			</g>
			<g clip-path="url(#a)" fill="#FCB034">
				<polygon points="34.726 1.957 34.797 1.957 34.797 1.957 34.726 1.957 34.726 1.957 34.726 1.957 34.797 1.957 34.797 1.957 34.726 1.957" clip-rule="evenodd" fill-rule="evenodd"/>
				<path d="m34.725 2.0557v-0.19873h0.071777v0.19873h-0.071777zm0-0.098145v0.098144-0.098144z"/>
			</g>
			<g clip-path="url(#a)" fill="#FCB034">
				<polygon points="34.726 1.957 34.797 1.957 34.797 1.957 34.726 1.957 34.726 1.957 34.726 1.957 34.797 1.957 34.797 1.957 34.726 1.957" clip-rule="evenodd" fill-rule="evenodd"/>
				<path d="m34.725 2.0557v-0.19873h0.071777v0.19873h-0.071777zm0-0.098145v0.098144-0.098144z"/>
			</g>
			<g clip-path="url(#a)" fill="#FCB034">
				<polygon points="34.726 1.957 34.797 1.957 34.797 1.957 34.726 1.957 34.726 1.957 34.726 1.957 34.797 1.957 34.797 1.957 34.726 1.957" clip-rule="evenodd" fill-rule="evenodd"/>
				<path d="m34.725 2.0557v-0.19873h0.071777v0.19873h-0.071777zm0-0.098145v0.098144-0.098144z"/>
			</g>
			<g clip-path="url(#a)" fill="#FCB034">
				<polygon points="34.726 1.957 34.797 1.957 34.797 1.957 34.726 1.957 34.726 1.957 34.726 1.957 34.726 1.957 34.726 1.957 34.726 1.957" clip-rule="evenodd" fill-rule="evenodd"/>
				<path d="m34.725 2.0557v-0.098145 0.098145-0.19873h0.071777v0.19873h-0.071777zm0-0.098145v0.098144-0.098144z"/>
			</g>
			<g clip-path="url(#a)" fill="#FCB034">
				<polygon points="34.726 1.957 34.797 1.957 34.797 1.957 34.726 1.957 34.726 1.957 34.726 1.957 34.726 1.957 34.726 1.957 34.726 1.957" clip-rule="evenodd" fill-rule="evenodd"/>
				<path d="m34.725 2.0557v-0.098145 0.098145-0.19873h0.071777v0.19873h-0.071777zm0-0.098145v0.098144-0.098144z"/>
			</g>
			<g clip-path="url(#a)">
				<polygon points="34.726 1.957 34.726 1.957 34.726 1.957 34.726 1.957 34.726 1.957 34.726 1.957 34.726 1.957 34.726 1.957 34.726 1.957" clip-rule="evenodd" fill="#FCB034" fill-rule="evenodd"/>
			</g>
			<g clip-path="url(#a)">
				<polygon points="34.726 1.957 34.726 1.957 34.726 1.957 34.726 1.957 34.726 1.957 34.726 1.957 34.726 1.957 34.726 1.957 34.726 1.957" clip-rule="evenodd" fill="#FCB034" fill-rule="evenodd"/>
			</g>
			<g clip-path="url(#a)">
				<polygon points="34.726 1.957 34.726 1.957 34.726 1.957 34.726 1.957" clip-rule="evenodd" fill="#FCB034" fill-rule="evenodd"/>
			</g>
		
	

<g fill="#FCB034">
	
		
			<path d="m56.461 56.507c2.52 0.28809 3.7441 1.2969 3.7441 3.4561 0 1.9443-1.2959 3.168-3.7441 3.6006v1.0078c4.1763-0.36035 6.4082-2.0879 6.4082-4.8242 0-2.6641-2.2319-4.248-6.4082-4.248v1.0078zm-3.7441 7.2002v-2.2314c0-1.7285 0.072266-3.3848 0.14404-4.9688 0.64795-0.072266 1.2241-0.072266 1.8003-0.072266 0.64795 0 1.2236 0 1.7998 0.072266v-1.0078c-1.7998 0-3.3838 0.14453-4.8237 0.14453-0.36035 0-0.86426 0-1.3682-0.072266 0.071777 2.5918 0.14404 5.3281 0.14404 8.3516 0 2.8086-0.072266 5.6162-0.14404 8.2803 0.43213-0.072266 0.93604-0.14355 1.4399-0.14355 0.35986 0 0.79199 0.071289 1.1519 0.14355-0.071777-1.7998-0.14404-3.168-0.14404-4.1758v-3.4561c0.93604 0.072266 1.728 0.072266 2.2324 0.072266 0.50391 0 1.0078 0 1.5117-0.072266v-1.0078c-0.71973 0.14355-1.5117 0.21582-2.4478 0.21582-0.43213 0-0.86426-0.072266-1.2964-0.072266z" clip-rule="evenodd" fill-rule="evenodd"/>
			<path d="m52.812 72.447c-0.35303-0.070312-0.77637-0.14062-1.1025-0.14062-0.48096 0-0.97266 0.070312-1.3999 0.14258l-0.29932 0.049805 0.0083008-0.30371c0.072266-2.6631 0.14453-5.4697 0.14453-8.2734 0-3.0195-0.072266-5.7529-0.14453-8.3447l-0.0083008-0.29688 0.29297 0.042969c0.4834 0.068359 0.97461 0.070312 1.334 0.068359 1.3569 0.0019531 2.8643-0.12891 4.5737-0.14355v-9.766e-4h0.5v0.0019531c4.0625 0.070312 6.4009 1.709 6.4092 4.4971 0.0039063 2.9072-2.4199 4.7285-6.6367 5.0742h-0.0083008c-0.51953 0.071289-1.0283 0.072266-1.5259 0.072266-0.45703 0-1.1533-9.766e-4 -1.9819-0.053711v3.1875c0 0.99707 0.072266 2.3643 0.14209 4.165l0.014648 0.31641-0.31201-0.060547zm-2.1494-8.5254c0 2.707-0.066894 5.4121-0.13623 7.9863 0.36572-0.054688 0.77051-0.098633 1.1831-0.098633 0.28564 0 0.59863 0.040039 0.88965 0.089844-0.067871-1.6455-0.13184-2.915-0.13184-3.873v-3.7266l0.26855 0.020508c0.92529 0.072266 1.71 0.072266 2.2134 0.072266 0.4292 0 0.84961 0 1.2617-0.043945v-0.48633c-0.65771 0.11035-1.3755 0.16602-2.1968 0.16504-0.46045 0-0.89209-0.072266-1.2969-0.072266v-0.24805h0.25-0.25v0.24805h-0.25v-2.4805c0-1.7363 0.072266-3.3965 0.14453-4.9805l0.010254-0.21484 0.21094-0.022461c0.66455-0.074219 1.251-0.072266 1.8296-0.072266 0.54443 0 1.0469-9.766e-4 1.5483 0.042969v-0.47754c-1.6841 0.0097656-3.186 0.1416-4.5737 0.1416-0.29395 0-0.68994 9.766e-4 -1.1108-0.039062 0.069336 2.5078 0.13623 5.1543 0.13623 8.0693zm6.0483 0.37109c3.9521-0.4209 5.9033-2.0381 5.9097-4.5469-0.0083008-2.4326-1.9429-3.9131-5.9097-3.9941v0.53027c2.4253 0.30371 3.7715 1.4678 3.7437 3.6807 0.013672 2.0195-1.3657 3.3486-3.7437 3.8096v0.52051zm-2.6968-0.76562c0.83545 0 1.5498-0.057617 2.1968-0.17285v-0.0029297l0.16113-0.027344c0.013184-0.0019531 0.026367-0.0048828 0.039062-0.0078125l0.2998-0.05957v9.766e-4c2.1904-0.47852 3.2319-1.5615 3.2437-3.2949-0.026856-2.0273-1.0347-2.8799-3.4775-3.2021l-0.047363-0.0058594c-0.55518-0.070312-1.1211-0.072266-1.7671-0.072266-0.51318 0-1.0146 9.766e-4 -1.5625 0.050781-0.066894 1.5176-0.13281 3.0977-0.13281 4.7412v1.9893c0.3667 0.017578 0.71631 0.06543 1.0469 0.063477z"/>
		
		
			<path d="m52.717 63.707v-2.2314c0-1.7285 0.072266-3.3848 0.14404-4.9688 0.64795-0.072266 1.2241-0.072266 1.8003-0.072266 3.7437 0 5.5439 0.86426 5.5439 3.5283 0 2.5205-2.0879 3.8164-6.1919 3.8164-0.43213-1e-7 -0.86426-0.072266-1.2964-0.072266zm-2.4478 8.4961c0.43213-0.072266 0.93604-0.14355 1.4399-0.14355 0.35986 0 0.79199 0.071289 1.1519 0.14355-0.071777-1.7998-0.14404-3.168-0.14404-4.1758v-3.4561c0.93604 0.072266 1.728 0.072266 2.2324 0.072266 5.1836 0 7.9199-1.8008 7.9199-4.8965 0-2.6641-2.2319-4.248-6.4082-4.248-1.7998 0-3.3838 0.14453-4.8237 0.14453-0.36035 0-0.86426 0-1.3682-0.072266 0.071777 2.5918 0.14404 5.3281 0.14404 8.3516-1e-7 2.8086-0.072266 5.6162-0.14404 8.2803z" clip-rule="evenodd" fill-rule="evenodd"/>
			<path d="m52.812 72.447c-0.35303-0.070312-0.77637-0.14062-1.1025-0.14062-0.48096 0-0.97266 0.070312-1.3999 0.14258l-0.041016-0.24707 0.041016 0.24707-0.29932 0.049805 0.0083008-0.30371c0.072266-2.6631 0.14453-5.4697 0.14453-8.2734 0-3.0195-0.072266-5.7529-0.14453-8.3447l-0.0083008-0.29688 0.29297 0.042969c0.4834 0.068359 0.97461 0.070312 1.334 0.068359 1.4229 0.0019531 3.0107-0.14258 4.8237-0.14453 4.2163 0.0058594 6.6509 1.6543 6.6592 4.499-0.0083008 3.292-2.957 5.1416-8.1709 5.1465-0.45703 0-1.1533-9.766e-4 -1.9819-0.053711v3.1875c0 0.99707 0.072266 2.3643 0.14209 4.165l0.014648 0.31641-0.31201-0.060547zm-2.1494-8.5254c0 2.707-0.066894 5.4121-0.13623 7.9863 0.36572-0.054688 0.77051-0.098633 1.1831-0.098633 0.28564 0 0.59863 0.040039 0.88965 0.089844-0.067871-1.6455-0.13184-2.915-0.13184-3.873v-3.7266l0.26855 0.020508c0.92529 0.072266 1.71 0.072266 2.2134 0.072266 5.1543-0.022461 7.6689-1.7471 7.6714-4.6465-0.0083008-2.4834-2.0239-3.9746-6.1597-3.9971-1.7861-0.0019531-3.3677 0.14258-4.8237 0.14258-0.29395 0-0.68994 9.766e-4 -1.1108-0.039062 0.069336 2.5078 0.13623 5.1543 0.13623 8.0693zm2.0547 0.033203v-0.24805h0.25-0.25v0.24805h-0.25v-2.4805c0-1.7363 0.072266-3.3965 0.14453-4.9805l0.010254-0.21484 0.21094-0.022461c0.66455-0.074219 1.251-0.072266 1.8296-0.074219 1.8892 0.0039063 3.312 0.21289 4.3027 0.80078 0.99756 0.58887 1.4971 1.5947 1.4893 2.9795-0.0063477 2.71-2.3149 4.0615-6.4404 4.0645-0.46045 2e-7 -0.89209-0.072266-1.2969-0.072266zm1.2969-0.42773c4.082-0.024414 5.9365-1.2354 5.9404-3.5645-0.020508-2.4922-1.5488-3.2373-5.292-3.2803-0.51318 0-1.0146 9.766e-4 -1.5625 0.050781-0.066894 1.5176-0.13281 3.0977-0.13281 4.7412v1.9893c0.3667 0.017578 0.71631 0.06543 1.0469 0.063476z"/>
		
	
	
		
			<path d="m79.79 58.667 0.071777-0.072266c1.5122 2.8809 2.3042 4.5361 2.52 4.9688l0.43213 1.0801h-3.0239v1.0078h0.071777c1.2241 0 2.376 0 3.5283 0.072266l0.50391 0.93555c1.0078 2.0156 1.7998 3.8887 2.4478 5.5439 0.50439-0.072266 1.0083-0.14355 1.4404-0.14355 0.50391 0 1.0078 0.071289 1.4399 0.14355-2.7363-5.3994-5.5439-11.017-8.3521-16.92h-0.50391c-0.21631 0.28809-0.36035 0.64746-0.57617 1.0078v2.376zm-2.9521 5.9766 2.9521-5.9766v-2.376c-2.6641 5.3281-5.4722 10.584-8.3521 15.912 0.35986-0.072266 0.64795-0.14355 0.93604-0.14355 0.35986 0 0.71973 0.071289 1.0078 0.14355 0.86426-2.2314 1.8721-4.3916 2.9521-6.4795 1.1519-0.072266 2.3042-0.072266 3.4561-0.072266v-1.0078h-0.79199-2.1602z" clip-rule="evenodd" fill-rule="evenodd"/>
			<path d="m71.217 72.083c2.8687-5.3096 5.6675-10.545 8.3213-15.852v-0.012695l0.035156-0.057617c0.20459-0.33887 0.34912-0.70215 0.59082-1.0283l0.074219-0.099609h0.78857l0.068359 0.14258c2.8062 5.8994 5.6123 11.516 8.3481 16.914l0.2251 0.43945-0.48926-0.081055c-0.42725-0.072266-0.91699-0.13965-1.3979-0.13965-0.40479 0-0.90234 0.067383-1.4062 0.13965l-0.19629 0.029297-0.069824-0.18359c-0.64648-1.6504-1.4355-3.5166-2.437-5.5176l-0.43799-0.81348c-1.0962-0.061523-2.1987-0.064453-3.3735-0.064453h-0.072266c-1.1045 0-2.2036 0.0029297-3.2983 0.064453-1.0518 2.0439-2.0342 4.1543-2.8755 6.3291l-0.080566 0.20605-0.21484-0.053711c-0.27686-0.070312-0.61963-0.13574-0.9458-0.13574-0.24561-0.0019531-0.52051 0.063477-0.8877 0.1377l-0.52246 0.10547 0.25391-0.46875zm12.187-6.6094 0.13818 0.0078125 0.57422 1.0654c0.97461 1.9502 1.748 3.7656 2.3853 5.3799 0.44043-0.061523 0.87891-0.11816 1.2798-0.11816 0.34326 0 0.68164 0.03125 0.99707 0.073242-2.6445-5.2227-5.355-10.652-8.0674-16.351h-0.21631c-0.14844 0.22559-0.27686 0.5166-0.45654 0.82812v2.0361l0.042969 0.082031c1.5137 2.8828 2.3086 4.5449 2.5317 4.9912l0.56982 1.4229h-0.36963c-1.043 0-1.9673 0-2.7749 9.766e-4v0.50879c1.1587-1e-7 2.2593 9.765e-4 3.3657 0.072266zm-10.178 6.4355c0.84961-2.1699 1.833-4.2705 2.8843-6.3018l0.063965-0.12598 0.14258-0.0078125c1.0786-0.069336 2.1533-0.072266 3.2212-0.072266v-0.50977c-0.19922 0-0.38867 0-0.54102 0.0019531-1.0098-0.0019531-1.728-0.0019531-2.1597-0.0019531v-0.24805l0.22314 0.10938-0.22314-0.10938v0.24805h-0.40479l3.1055-6.2861v-1.2607c-2.4458 4.8535-5.0068 9.6553-7.6294 14.51 0.1543-0.026367 0.30566-0.044922 0.46436-0.045898 0.30322 0 0.59766 0.045898 0.85303 0.10059zm5.771-7.5156c0.15234-9.766e-4 0.3418-0.0019531 0.54102-9.766e-4v-9.766e-4h0.25c0.76953 0 1.6553 0 2.6548 9.766e-4l-0.28662-0.71777c-0.20654-0.41699-0.93213-1.9346-2.3081-4.5674l-2.6099 5.2852c0.13818 0 0.29248-9.766e-4 0.46289-9.766e-4 0.36035 0 0.79199 9.765e-4 1.2959 0.0019531z"/>
		
		
			<path d="m76.837 64.644 3.0239-6.0488c1.5122 2.8809 2.3042 4.5361 2.52 4.9688l0.43213 1.0801h-3.8159-2.1602zm-5.3999 7.5596c0.35986-0.072266 0.64795-0.14355 0.93604-0.14355 0.35986 0 0.71973 0.071289 1.0078 0.14355 0.86426-2.2314 1.8721-4.3916 2.9521-6.4795 1.1519-0.072266 2.3042-0.072266 3.5278-0.072266 1.2241 0 2.376 0 3.5283 0.072266l0.50391 0.93555c1.0078 2.0156 1.7998 3.8887 2.4478 5.5439 0.50439-0.072266 1.0083-0.14355 1.4404-0.14355 0.50391 0 1.0078 0.071289 1.4399 0.14355-2.7363-5.3994-5.5439-11.017-8.3521-16.92h-0.50391c-2.8804 5.6162-5.832 11.304-8.9282 16.92z" clip-rule="evenodd" fill-rule="evenodd"/>
			<path d="m71.217 72.081c3.0952-5.6123 6.0459-11.297 8.9263-16.913l0.068359-0.13477h0.81543l0.068359 0.14258c2.8062 5.8994 5.6123 11.516 8.3481 16.914l0.2251 0.43945-0.48926-0.081055c-0.42725-0.072266-0.91699-0.13965-1.3979-0.13965-0.40479 0-0.90234 0.067383-1.4062 0.13965l-0.19629 0.029297-0.069824-0.18359c-0.64648-1.6504-1.4355-3.5166-2.437-5.5176l-0.43799-0.81348c-1.0962-0.061523-2.1987-0.064453-3.3735-0.064453-1.1738 0-2.2759 0.0029297-3.3706 0.064453-1.0518 2.0439-2.0342 4.1543-2.8755 6.3291l-0.080566 0.20605-0.21484-0.053711c-0.27686-0.070312-0.61963-0.13574-0.9458-0.13574-0.24561-0.0019531-0.52051 0.063477-0.8877 0.1377l-0.047852-0.24316 0.047852 0.24316-0.52881 0.10742 0.26025-0.47266zm8.6436-6.6797c1.2246 0 2.3809-0.0019531 3.5435 0.072266l0.13818 0.0078125 0.57422 1.0654c0.97461 1.9502 1.748 3.7656 2.3853 5.3799 0.44043-0.061523 0.87891-0.11816 1.2798-0.11816 0.34326 0 0.68164 0.03125 0.99707 0.073242-2.6445-5.2227-5.355-10.652-8.0674-16.351h-0.19287c-2.7783 5.417-5.6245 10.898-8.603 16.322 0.15186-0.026367 0.30176-0.043945 0.45801-0.044922 0.30322 0 0.59766 0.045898 0.85303 0.10059 0.84961-2.1699 1.833-4.2705 2.8843-6.3018l0.063965-0.12598 0.14258-0.0078125c1.1016-0.070312 2.1992-0.072266 3.3511-0.072266 0.063965 1e-7 0.12793 1e-7 0.19238 1e-7zm2.9526-0.50781c-1.5137-0.0019531-2.8081-0.0019531-3.8159 0-1.0098-0.0019531-1.728-0.0019531-2.1597-0.0019531v-0.24805l0.22314 0.11133-0.22314-0.11133v0.24805h-0.40674l3.4253-6.8457 0.2251 0.43164c1.5137 2.8828 2.3086 4.5449 2.5317 4.9912l0.56982 1.4248h-0.36963zm-3.8159-0.5c0.92432-0.0019531 2.0903-0.0019531 3.4453-0.0019531l-0.28613-0.7168c-0.20557-0.41504-0.92627-1.9219-2.2905-4.5342l-2.624 5.252c0.13721 0 0.29053-9.766e-4 0.45947-9.766e-4 0.35986 1e-7 0.79199 9.766e-4 1.2959 0.0019532z"/>
		
	
	
		
			<path d="m108.23 56.507c2.4478 0.28809 3.6719 1.3682 3.6719 3.2402 0 1.8008-1.2241 2.9521-3.6719 3.3838v3.6006l1.1519 1.2236c1.1523 1.2959 2.3042 2.6641 3.6001 4.248 0.57617-0.072266 1.0801-0.14355 1.6562-0.14355 0.57568 0 1.1519 0.071289 1.728 0.14355-2.9521-3.0957-5.5444-5.832-7.7041-8.208 3.7437-0.57617 5.7598-2.2324 5.7598-4.5352 0-2.5928-2.0879-3.8887-6.1919-3.9609v1.0078zm-3.6719 6.8398v-3.2393-1.0801c0-0.71973 0-1.584 0.14404-2.5205 0.93604 0 1.728-0.072266 2.3037-0.072266 0.43213 0 0.86426 0.072266 1.2241 0.072266v-1.0078h-0.28809c-1.7998 0-3.3838 0.14453-4.6079 0.14453-0.28809 0-0.72021-0.072266-1.2959-0.072266 0.14404 2.1602 0.21582 4.9678 0.21582 8.3516 0 3.0957-0.071777 5.9043-0.21582 8.2803 0.43213-0.072266 0.93604-0.14355 1.3677-0.14355 0.43213 0 0.86426 0.071289 1.2964 0.14355-0.072266-1.3682-0.14404-2.5918-0.14404-3.6719v-4.4639c0.21582 0 0.35986-0.072266 0.57568-0.072266 0.50439 0 0.79199 0.21582 1.1523 0.57617l1.9438 2.1602v-3.6006c-0.79199 0.14355-1.6558 0.21582-2.7358 0.21582-0.21631-2e-7 -0.57617-2e-7 -0.93604-2e-7z" clip-rule="evenodd" fill-rule="evenodd"/>
			<path d="m116.33 72.451c-0.57617-0.072266-1.1421-0.14258-1.6973-0.14258-0.55566 0-1.0469 0.070312-1.625 0.14258l-0.13867 0.015625-0.086426-0.10742c-1.2949-1.5811-2.4448-2.9463-3.5889-4.2344l-0.7207-0.76465v0.021484l-0.41895-0.46582-0.080566-0.085938v-0.0039063l-1.8711-2.0791c-0.35889-0.35156-0.55127-0.49609-0.97461-0.50391-0.099121-0.0029297-0.19434 0.026367-0.32617 0.048828v4.2393c0 1.0674 0.072266 2.2881 0.14453 3.6572l0.016602 0.31152-0.30762-0.051758c-0.43164-0.072266-0.85059-0.13965-1.2554-0.13965s-0.90039 0.070312-1.3257 0.13965l-0.31201 0.051758 0.020996-0.31348c0.14453-2.3682 0.21436-5.1729 0.21436-8.2637 0-3.3799-0.069824-6.1846-0.21436-8.3359l-0.018555-0.2666h0.26807c0.59473 0 1.0449 0.074219 1.2949 0.072266 1.2056 0 2.7959-0.14453 4.6089-0.14453h0.037109v-0.0058594l0.25586 0.0058594h0.24365v0.0048828c3.9712 0.09668 6.2007 1.4834 6.1929 4.2051-0.0024414 2.3809-2.0122 4.0703-5.5161 4.707 2.0947 2.293 4.5796 4.916 7.3906 7.8643l0.4873 0.50977-0.69775-0.08789zm-7.8569-5.8213 1.0903 1.1582c1.1279 1.2695 2.2563 2.6074 3.5171 4.1484 0.51953-0.06543 1.001-0.12793 1.5522-0.12793 0.35986 0 0.71582 0.027344 1.0679 0.063477-2.7539-2.8887-5.1836-5.459-7.2275-7.708v2.4658h1e-7zm-5.9756-2.707c0 2.9658-0.066406 5.668-0.19678 7.9834 0.35889-0.053711 0.74512-0.097656 1.0991-0.097656 0.35205 0 0.69482 0.043945 1.0303 0.09668-0.066406-1.2432-0.12793-2.3662-0.12793-3.374v-4.7139h0.25c0.15234 0.0039063 0.29492-0.068359 0.57568-0.072266 0.58447-0.0078125 0.96875 0.2793 1.3384 0.65625l1.5073 1.6768v-2.6533c-0.729 0.11426-1.5249 0.17188-2.4844 0.16992h-0.93701v-0.24805h0.24951-0.24951v0.24805h-0.25v-3.4883-1.0791c0-0.7207 0-1.6006 0.14648-2.5586l0.033203-0.21289h0.21484c0.92285 0 1.7075-0.072266 2.3042-0.072266 0.34961 0 0.68701 0.042969 0.97266 0.0625v-0.49805h-0.037109c-1.7886 0-3.3657 0.14453-4.6089 0.14453-0.27197-0.0019531-0.60449-0.050781-1.0293-0.067383 0.13281 2.1299 0.19922 4.8486 0.19922 8.0977zm5.9756-0.15332 0.14453-0.022461c3.7046-0.58203 5.5503-2.1641 5.5483-4.2891-0.0058594-2.3545-1.7856-3.5596-5.6929-3.7021v0.52832c2.3608 0.31348 3.6914 1.5146 3.6733 3.4629 0.012207 1.8838-1.3047 3.1377-3.6733 3.5908v0.43164zm-2.9839-0.67285c0.97412-0.0019531 1.7637-0.060547 2.4844-0.17676v-9.766e-4l0.20654-0.035156c2.3994-0.44336 3.4521-1.4756 3.4648-3.1367-0.016602-1.7344-1.0493-2.6807-3.437-2.9922-0.38623-0.0029297-0.80762-0.071289-1.207-0.071289-0.51416 0-1.2344 0.061523-2.0869 0.070312-0.11035 0.83398-0.1123 1.6084-0.1123 2.2734v1.0791 2.9893h0.27246c0.16211 1e-7 0.30664 1e-7 0.41504 9.767e-4z"/>
		
		
			<path d="m104.56 63.347v-3.2393-1.0801c0-0.71973 0-1.584 0.14404-2.5205 0.93604 0 1.728-0.072266 2.3037-0.072266 3.2402 0 4.896 1.1523 4.896 3.3125 0 2.4482-2.0879 3.5996-6.4077 3.5996-0.21631-1e-7 -0.57617-1e-7 -0.93604-1e-7zm-2.52 8.8564c0.43213-0.072266 0.93604-0.14355 1.3677-0.14355 0.43213 0 0.86426 0.071289 1.2964 0.14355-0.072266-1.3682-0.14404-2.5918-0.14404-3.6719v-4.4639c0.21582 0 0.35986-0.072266 0.57568-0.072266 0.50439 0 0.79199 0.21582 1.1523 0.57617l3.0957 3.3838c1.1523 1.2959 2.3042 2.6641 3.6001 4.248 0.57617-0.072266 1.0801-0.14355 1.6562-0.14355 0.57568 0 1.1519 0.071289 1.728 0.14355-2.9521-3.0957-5.5444-5.832-7.7041-8.208 3.7437-0.57617 5.7598-2.2324 5.7598-4.5352 0-2.665-2.1597-3.9609-6.48-3.9609-1.7998 0-3.3838 0.14453-4.6079 0.14453-0.28809 0-0.72021-0.072266-1.2959-0.072266 0.14404 2.1602 0.21582 4.9678 0.21582 8.3516 1e-7 3.0957-0.071777 5.9043-0.21582 8.2803z" clip-rule="evenodd" fill-rule="evenodd"/>
			<path d="m116.33 72.451c-0.57617-0.072266-1.1421-0.14258-1.6973-0.14258-0.55566 0-1.0469 0.070312-1.625 0.14258l-0.13867 0.015625-0.086426-0.10742c-1.2949-1.5811-2.4448-2.9463-3.5908-4.2363l-3.0894-3.376c-0.35889-0.35156-0.55127-0.49609-0.97461-0.50391-0.099121-0.0029297-0.19434 0.026367-0.32617 0.048828v4.2393c0 1.0674 0.072266 2.2881 0.14453 3.6572l0.016602 0.31152-0.30762-0.051758c-0.43164-0.072266-0.85059-0.13965-1.2554-0.13965s-0.90039 0.070312-1.3257 0.13965l-0.041504-0.24512 0.041504 0.24512-0.31201 0.051758 0.020996-0.31348c0.14453-2.3682 0.21436-5.1729 0.21436-8.2637 0-3.3799-0.069824-6.1846-0.21436-8.3359l-0.018555-0.2666h0.26807c0.59473 0 1.0449 0.074219 1.2949 0.072266 1.2056 0 2.7959-0.14453 4.6089-0.14453 4.3384 0.0039063 6.7231 1.3564 6.7295 4.21-0.0024414 2.3809-2.0122 4.0703-5.5161 4.707 2.0947 2.293 4.5796 4.916 7.3906 7.8643l0.4873 0.50977-0.69775-0.08789zm-9.8662-8.0498 3.0996 3.3867c1.1279 1.2695 2.2563 2.6074 3.5171 4.1484 0.51953-0.06543 1.001-0.12793 1.5522-0.12793 0.35986 0 0.71582 0.027344 1.0679 0.063477-2.7549-2.8896-5.1851-5.46-7.2295-7.71l-0.31201-0.34473 0.4585-0.070312c3.7046-0.58203 5.5503-2.1641 5.5483-4.2891-0.0063477-2.4736-1.9263-3.6816-6.2295-3.71-1.7886 0-3.3657 0.14453-4.6089 0.14453-0.27197-0.0019531-0.60449-0.050781-1.0293-0.067383 0.13281 2.1299 0.19922 4.8486 0.19922 8.0977 0 2.9658-0.066406 5.668-0.19678 7.9834 0.35889-0.053711 0.74512-0.097656 1.0991-0.097656 0.35205 0 0.69482 0.043945 1.0303 0.09668-0.066406-1.2432-0.12793-2.3662-0.12793-3.374v-4.7139h0.25c0.15234 0.0039063 0.29492-0.068359 0.57568-0.072266h0.024902c0.57031-2e-7 0.94873 0.28418 1.311 0.65625zm-1.9116-0.80664v-0.24805h0.24951-0.24951v0.24805h-0.25v-3.4883-1.0791c0-0.7207 0-1.6006 0.14648-2.5586l0.033203-0.21289h0.21484c0.92285 0 1.7075-0.072266 2.3042-0.072266 3.2749 0.0039063 5.1396 1.2305 5.1455 3.5635 0 2.6514-2.3311 3.8457-6.6572 3.8477h-0.93701zm0.24951-4.5674v1.0791 2.9893c0.27002-9.766e-4 0.52148-9.766e-4 0.6875-9.766e-4 4.3115-0.024414 6.1514-1.1045 6.1577-3.3477-0.014648-1.9902-1.4414-3.0332-4.646-3.0635-0.51416 0-1.2344 0.061523-2.0869 0.070312-0.11035 0.83398-0.1123 1.6084-0.1123 2.2734z"/>
		
	
	
		<path d="m133.21 60.755v-4.0312h-0.79199c-2.2319 0-4.0317 0.071289-5.2559 0.28711 0-0.21582 0.071777-0.50391 0.071777-0.71973s-0.071777-0.50391-0.071777-0.71973c2.1602 0.072266 4.4639 0.072266 6.8398 0.072266 2.4482 0 4.9688 0 7.6328-0.072266-0.072266 0.21582-0.072266 0.43164-0.072266 0.71973 0 0.21582 0 0.43262 0.072266 0.71973-1.4414-0.21582-3.0967-0.28711-5.041-0.28711h-0.86328c-0.14453 1.584-0.14453 3.4551-0.14453 5.4717 0 2.1602 0 5.5439 0.14453 10.008-0.43262-0.072266-0.79297-0.072266-1.2969-0.072266-0.43164 0-0.86328 0-1.3672 0.072266 0.072266-4.0322 0.14355-7.8477 0.14355-11.448z" clip-rule="evenodd" fill-rule="evenodd"/>
		<path d="m135.69 72.449c-0.40918-0.068359-0.75-0.070312-1.2559-0.070312-0.43164 0-0.84863 0.0019531-1.332 0.070312l-0.29102 0.041016 0.0058594-0.29297c0.072266-4.0312 0.14453-7.8467 0.14258-11.443h0.0019531c-0.0019531-1.0889-0.0019531-2.3691 0-3.7812h-0.54297c-2.2256 0-4.0176 0.072266-5.2114 0.2832l-0.29297 0.051758v-0.29785c0.0019531-0.26367 0.074219-0.55273 0.070312-0.71875 0.0039063-0.16895-0.068359-0.45605-0.070312-0.7207v-0.25977l0.2583 0.010742c2.1533 0.069336 4.4551 0.072266 6.8301 0.072266 2.4492 0 4.9658-0.0029297 7.626-0.072266l0.35645-0.010742-0.11328 0.33887c-0.055664 0.16504-0.05957 0.35059-0.05957 0.6416 0.0019531 0.21484 0.0019531 0.39844 0.06543 0.65723l0.091797 0.36523-0.37012-0.055664c-1.4229-0.21289-3.0664-0.28516-5.0049-0.28516h-0.63477c-0.12305 1.5195-0.12305 3.3018-0.12305 5.2227 0 2.1592 0 5.54 0.14453 9.998l0.0097656 0.30566-0.30078-0.049805zm-2.2285-11.695c-0.0019531 3.5195-0.069336 7.2393-0.13965 11.166 0.40332-0.040039 0.7627-0.039062 1.1123-0.039062 0.3877 0 0.70312-9.766e-4 1.0371 0.03418-0.13477-4.3213-0.13477-7.6084-0.13477-9.7197 0-2.0176 0-3.8945 0.14648-5.4951l0.020508-0.22754h0.22754 0.86328c1.7998 0 3.3574 0.060547 4.7344 0.24121-0.015625-0.15723-0.015625-0.2959-0.014648-0.42285 0-0.16309-9.766e-4 -0.31348 0.013672-0.46191-2.5537 0.063477-4.9746 0.063477-7.3252 0.063477-2.2734 0-4.4819 0-6.5649-0.063477 0.02002 0.14258 0.04541 0.30566 0.046387 0.46191-9.766e-4 0.13965-0.021973 0.28711-0.041016 0.41992 1.2329-0.17871 2.9229-0.23828 4.9756-0.23828h0.79297 0.24805v0.25 4.0312h0.0019528v2e-7z"/>
	
	
		<path d="m155.03 57.804v-2.5205h0.50488c5.1123 4.9678 9.8643 9.1436 14.112 12.744 0.071289-0.79199 0.071289-1.5127 0.071289-2.0879 0-4.7529-0.071289-8.208-0.21582-10.368 0.28809 0.072266 0.64844 0.072266 0.93555 0.072266 0.28906 0 0.57617 0 0.86426-0.072266-0.14355 4.1758-0.21582 7.9922-0.21582 11.447 0 1.9443 0 3.7441 0.072266 5.4727h-0.36035c-1.8721-1.9434-4.3916-4.248-7.416-6.9121l-6.9111-6.2637c-0.072266 1.0801-0.072266 2.1602-0.072266 3.2402 0 2.1592 0.072266 5.3994 0.21484 9.6475-0.35938-0.072266-0.64746-0.14355-1.0078-0.14355-0.28711 0-0.64746 0.071289-0.93555 0.14355 0.21582-4.5361 0.35937-9.3604 0.35937-14.399z" clip-rule="evenodd" fill-rule="evenodd"/>
		<path d="m171.16 72.74h-0.46875l-0.072266-0.077148c-1.8643-1.9336-4.3809-4.2354-7.4033-6.9004l-6.5244-5.9121c-0.041016 0.89746-0.042969 1.7979-0.041016 2.7041-0.0019531 2.1543 0.070312 5.3916 0.21289 9.6396l0.0097656 0.31445-0.30762-0.0625c-0.36719-0.074219-0.63379-0.13867-0.95801-0.13867-0.24805 0-0.59961 0.066406-0.87598 0.13672l-0.32715 0.081055 0.016602-0.33496c0.2168-4.5332 0.35938-9.3525 0.35938-14.388v-2.5205-0.25h0.85547l0.074219 0.070312c4.9561 4.8193 9.5752 8.8887 13.725 12.415 0.03418-0.58887 0.035156-1.127 0.035156-1.5791 0-4.75-0.072266-8.2021-0.2168-10.351l-0.022461-0.34277 0.33203 0.082031c0.24414 0.0625 0.5918 0.066406 0.87598 0.066406 0.29004 0 0.55371-0.0019531 0.80371-0.066406l0.32031-0.080078-0.0097656 0.33203c-0.14453 4.1738-0.2168 7.9873-0.21484 11.44-0.0019531 1.9434 0 3.7393 0.070312 5.46l0.011719 0.26074h-0.25977v-3e-7zm-7.6113-7.3496c2.9844 2.6289 5.4785 4.9092 7.3506 6.8438-0.063477-1.6533-0.061523-3.3721-0.063477-5.2148 0.0019531-3.376 0.070312-7.0928 0.20605-11.15-0.20996 0.023438-0.41211 0.022461-0.60352 0.022461-0.19531 0-0.43066 0.0019531-0.66504-0.022461 0.13086 2.1846 0.19434 5.5381 0.19434 10.069 0 0.57617 0.0019531 1.3057-0.072266 2.1094l-0.042969 0.48145-0.36621-0.31152c-4.2314-3.5869-8.9629-7.7432-14.053-12.686h-0.15332v2.2705c0 4.9209-0.1377 9.6377-0.34375 14.083 0.2207-0.043945 0.45508-0.077148 0.6709-0.077148 0.27637 0 0.51074 0.038086 0.74707 0.084961-0.13574-4.0938-0.2041-7.2285-0.2041-9.3389 0-1.0791-0.0019531-2.165 0.072266-3.2559l0.035156-0.5127 7.291 6.6045z"/>
	
	
		<path d="m186.57 63.707c0-3.168-0.072266-5.9033-0.2168-8.1357 1.0801 0.072266 2.2324 0.072266 3.5283 0.072266s3.4561 0 6.5518-0.072266v0.71973 0.71973c-2.3037-0.21582-4.6074-0.28711-6.7676-0.28711h-0.64844c-0.072266 2.8789-0.072266 4.6074-0.072266 5.1836v0.93555h0.50391c1.4404 0 3.5293-0.072266 6.2646-0.21582-0.071289 0.28809-0.071289 0.50391-0.071289 0.79199 0 0.2168 0 0.43164 0.071289 0.64844-1.2959-0.14453-3.0967-0.14453-5.4717-0.14453h-1.3682v1.1523c0 1.5117 0.071289 3.5273 0.071289 5.9043h0.7207c1.4395 0 3.7441-0.072266 6.9121-0.2168v0.7207 0.71973c-1.584-0.072266-3.168-0.072266-4.8965-0.072266-1.7275 0-3.5273 0-5.3281 0.072266 0.14453-2.2314 0.2168-5.04 0.2168-8.4961z" clip-rule="evenodd" fill-rule="evenodd"/>
		<path d="m196.56 72.452c-1.5771-0.071289-3.1562-0.073242-4.8848-0.071289-1.7285-0.0019531-3.5244 0-5.3193 0.071289l-0.27832 0.011719 0.019531-0.27734c0.14453-2.2236 0.2168-5.0273 0.21484-8.4805h0.0019531c0-3.1641-0.072266-5.8955-0.2168-8.1191l-0.019531-0.28613 0.28613 0.020508c1.0674 0.070312 2.2139 0.070312 3.5107 0.070312 1.2949 0 3.4531 0 6.5469-0.070312l0.25488-0.0058594v0.25488 0.7207 0.71973 0.27344l-0.27344-0.025391c-2.2939-0.21484-4.5889-0.28809-6.7441-0.28809h-0.40527c-0.066406 2.7314-0.064453 4.377-0.066406 4.9365v0.68457h0.25488c1.4316 0 3.5186-0.071289 6.252-0.21582l0.33594-0.018555-0.081055 0.3291c-0.0625 0.25879-0.0625 0.44141-0.064453 0.73145 0 0.21777 0.0039063 0.40234 0.060547 0.57031l0.12012 0.37109-0.38574-0.043945c-1.2725-0.14258-3.0693-0.14453-5.4443-0.14453h-1.1191v0.90332c0 1.4521 0.066406 3.3818 0.070312 5.6553h0.47266c1.4307 0 3.7344-0.072266 6.9014-0.21777l0.26074-0.011719v0.2627 0.72168 0.71875 0.26074l-0.26074-0.011719zm-9.7461-8.7461c-0.0019531 3.3184-0.067383 6.0439-0.2002 8.2354 1.7148-0.061523 3.4219-0.061523 5.0615-0.061523 1.6318 0 3.1387 0 4.6445 0.061523 0-0.15723 9.766e-4 -0.32129 0.0019531-0.45703-9.766e-4 -0.17578-0.0019531-0.32422-0.0019531-0.46094-3.0352 0.13672-5.2549 0.20508-6.6611 0.20508h-0.96973v-0.25c0-2.373-0.072266-4.3857-0.072266-5.9043v-1.4014h1.6182c2.1787 0 3.876-9.766e-4 5.1621 0.11133-0.012695-0.12891-0.011719-0.25195-0.011719-0.36621 0-0.18164 0-0.34766 0.019531-0.52637-2.585 0.13184-4.5713 0.19922-5.9629 0.19922h-0.75293v-1.1836c-0.0019531-0.57812 0-2.3105 0.073242-5.1914l0.0058594-0.24219h0.89062c2.0811 0 4.2949 0.06543 6.5176 0.26367v-0.44629-0.46582c-2.9619 0.066406-5.04 0.068359-6.3018 0.066406-1.1826 0-2.252 0.0019531-3.2607-0.054688 0.13281 2.1865 0.19824 4.8311 0.19824 7.8691h0.001953z"/>
	
	
		
			<path d="m216.88 56.507c2.4482 0.28809 3.6719 1.3682 3.6719 3.2402 0 1.8008-1.2236 2.9521-3.6719 3.3838v3.6006l1.1514 1.2236c1.1523 1.2959 2.3047 2.6641 3.6006 4.248 0.57617-0.072266 1.0801-0.14355 1.6562-0.14355 0.5752 0 1.1514 0.071289 1.7275 0.14355-2.9512-3.0957-5.543-5.832-7.7031-8.208 3.7441-0.57617 5.7598-2.2324 5.7598-4.5352 0-2.5928-2.0879-3.8887-6.1924-3.9609v1.0078zm-3.6719 6.8398v-3.2393-1.0801c0-0.71973 0-1.584 0.14355-2.5205 0.93652 0 1.7285-0.072266 2.3047-0.072266 0.43164 0 0.86328 0.072266 1.2236 0.072266v-1.0078h-0.28809c-1.7998 0-3.3838 0.14453-4.6074 0.14453-0.28906 0-0.79297-0.072266-1.2969-0.072266 0.14453 2.1602 0.2168 4.9678 0.2168 8.3516 0 3.0957-0.072266 5.9043-0.2168 8.2803 0.43262-0.072266 0.93652-0.14355 1.3691-0.14355 0.43164 0 0.86328 0.071289 1.2949 0.14355-0.072266-1.3682-0.14355-2.5918-0.14355-3.6719v-4.4639c0.21582 0 0.36035-0.072266 0.57617-0.072266 0.50391 0 0.79199 0.21582 1.1514 0.57617l1.9443 2.1602v-3.6006c-0.79199 0.14355-1.6553 0.21582-2.7354 0.21582-0.2168-2e-7 -0.57617-2e-7 -0.93652-2e-7z" clip-rule="evenodd" fill-rule="evenodd"/>
			<path d="m224.98 72.45c-0.57617-0.073242-1.1426-0.1416-1.6973-0.1416-0.55566 0-1.0459 0.068359-1.626 0.1416l-0.1377 0.016602-0.086914-0.10645c-1.2939-1.583-2.4443-2.9463-3.5879-4.2344l-0.71973-0.76562v0.023438l-2.3721-2.6367c-0.3584-0.35156-0.5498-0.49707-0.97363-0.50293-0.098633-0.0029297-0.19434 0.025391-0.32617 0.047852v4.2373c0 1.0693 0.070312 2.29 0.14355 3.6602l0.014648 0.31055-0.30566-0.052734c-0.43066-0.070312-0.85059-0.13867-1.252-0.13867-0.4082 0-0.90332 0.068359-1.3291 0.13867l-0.3125 0.052734 0.021484-0.3125c0.14355-2.3701 0.21582-5.1738 0.21582-8.2666 0-3.3789-0.072266-6.1826-0.21582-8.332l-0.018555-0.26855h0.26758c0.52441 0 1.042 0.075195 1.2979 0.072266 1.2041 0 2.793-0.14355 4.6064-0.14355h0.039062v-0.0058594l0.25391 0.0058594h0.24512v0.0048828c3.9707 0.095703 6.1992 1.4814 6.1914 4.2051-0.0019531 2.3789-2.0107 4.0674-5.5137 4.7061 2.0938 2.2939 4.5781 4.915 7.3896 7.8643l0.48633 0.50977-0.69824-0.088867zm-6.7676-4.6631c1.1299 1.2705 2.2578 2.6084 3.5195 4.1484 0.51953-0.064453 1.001-0.12598 1.5508-0.12598 0.36035 0 0.71582 0.026367 1.0684 0.0625-2.752-2.8896-5.1816-5.458-7.2266-7.707v2.4688l1.0879 1.1533zm-7.0625-3.8662c-0.0019531 2.9678-0.068359 5.6699-0.2002 7.9854 0.36035-0.053711 0.74609-0.09668 1.1035-0.09668 0.34961 0 0.69141 0.043945 1.0273 0.095703-0.067383-1.2432-0.12793-2.3672-0.12891-3.376v-4.7119h0.25098c0.15234 0.0039063 0.2959-0.068359 0.57617-0.073242 0.58398-0.0058594 0.96875 0.28125 1.3369 0.66016l1.5098 1.6758v-2.6543c-0.72852 0.11328-1.5254 0.1709-2.4873 0.16895h-0.93555v-0.24902h0.25-0.25v0.24902h-0.24902v-3.4873c-0.0019531-0.3623-0.0019531-0.71973 0-1.0811 0-0.71973-0.0019531-1.5996 0.14551-2.5586l0.03125-0.21191h0.21582c0.92383 0 1.71-0.072266 2.3047-0.072266 0.35059 0 0.68848 0.042969 0.97461 0.0625v-0.49707h-0.039062c-1.7861 0-3.3652 0.14258-4.6064 0.14258-0.26465 0-0.63867-0.047852-1.0303-0.06543 0.13184 2.1299 0.19824 4.8477 0.2002 8.0947zm5.9746-0.15234 0.14551-0.021484c3.7021-0.58105 5.5488-2.1631 5.5469-4.2881-0.0058594-2.3555-1.7861-3.5615-5.6924-3.7031v0.52832c2.3613 0.31348 3.6895 1.5146 3.6709 3.4609 0.014648 1.8857-1.3018 3.1396-3.6709 3.5938v0.42969zm-2.9863-0.67285c1.0693 0 1.916-0.072266 2.6914-0.21191l0.054688-0.0097656c2.3604-0.44824 3.3994-1.4775 3.4121-3.1289-0.018555-1.7363-1.0527-2.6826-3.4502-2.9902h-0.0029297c-0.38379-0.0039063-0.79785-0.072266-1.1924-0.072266-0.51465 0-1.2344 0.061523-2.0869 0.071289-0.11133 0.83398-0.11133 1.6084-0.11133 2.2725v1.0811 2.9883h0.68555z"/>
		
		
			<path d="m213.21 63.347v-3.2393-1.0801c0-0.71973 0-1.584 0.14355-2.5205 0.93652 0 1.7285-0.072266 2.3047-0.072266 3.2402 0 4.8955 1.1523 4.8955 3.3125 0 2.4482-2.0879 3.5996-6.4072 3.5996-0.2168-1e-7 -0.57617-1e-7 -0.93652-1e-7zm-2.5205 8.8564c0.43262-0.072266 0.93652-0.14355 1.3691-0.14355 0.43164 0 0.86328 0.071289 1.2949 0.14355-0.072266-1.3682-0.14355-2.5918-0.14355-3.6719v-4.4639c0.21582 0 0.36035-0.072266 0.57617-0.072266 0.50391 0 0.79199 0.21582 1.1514 0.57617l3.0957 3.3838c1.1523 1.2959 2.3047 2.6641 3.6006 4.248 0.57617-0.072266 1.0801-0.14355 1.6562-0.14355 0.5752 0 1.1514 0.071289 1.7275 0.14355-2.9512-3.0957-5.543-5.832-7.7031-8.208 3.7441-0.57617 5.7598-2.2324 5.7598-4.5352 0-2.665-2.1602-3.9609-6.4805-3.9609-1.7998 0-3.3838 0.14453-4.6074 0.14453-0.28906 0-0.79297-0.072266-1.2969-0.072266 0.14453 2.1602 0.2168 4.9678 0.2168 8.3516 1e-7 3.0957-0.072266 5.9043-0.2168 8.2803z" clip-rule="evenodd" fill-rule="evenodd"/>
			<path d="m224.98 72.45c-0.57617-0.073242-1.1426-0.1416-1.6973-0.1416-0.55566 0-1.0459 0.068359-1.626 0.1416l-0.1377 0.016602-0.086914-0.10645c-1.2939-1.583-2.4443-2.9463-3.5898-4.2383l-3.0898-3.375c-0.3584-0.35156-0.5498-0.49707-0.97363-0.50293-0.098633-0.0029297-0.19434 0.025391-0.32617 0.047852v4.2373c0 1.0693 0.070312 2.29 0.14355 3.6602l0.014649 0.31055-0.30566-0.052734c-0.43066-0.070312-0.85059-0.13867-1.252-0.13867-0.4082 0-0.90332 0.068359-1.3291 0.13867l-0.041992-0.24512 0.041992 0.24512-0.3125 0.052734 0.021484-0.3125c0.14355-2.3701 0.21582-5.1738 0.21582-8.2666 0-3.3789-0.072266-6.1826-0.21582-8.332l-0.018555-0.26855h0.26758c0.52441 0 1.042 0.075195 1.2979 0.072266 1.2041 0 2.793-0.14355 4.6064-0.14355 4.3379 0.0029297 6.7236 1.3545 6.7295 4.21-0.0019531 2.3789-2.0107 4.0674-5.5137 4.7061 2.0938 2.2939 4.5781 4.915 7.3896 7.8643l0.48633 0.50977-0.69824-0.088867zm-9.8662-8.0488 3.0986 3.3857c1.1299 1.2705 2.2578 2.6084 3.5195 4.1484 0.51953-0.064453 1.001-0.12598 1.5508-0.12598 0.36035 0 0.71582 0.026367 1.0684 0.0625-2.7529-2.8906-5.1836-5.46-7.2285-7.709l-0.31348-0.3457 0.46094-0.070312c3.7021-0.58105 5.5488-2.1631 5.5469-4.2881-0.0058594-2.4756-1.9277-3.6816-6.2305-3.71-1.7861 0-3.3652 0.14258-4.6064 0.14258-0.26465 0-0.63867-0.047852-1.0303-0.06543 0.13184 2.1299 0.19824 4.8477 0.2002 8.0947-0.0019531 2.9678-0.068359 5.6699-0.2002 7.9854 0.36035-0.053711 0.74609-0.09668 1.1035-0.09668 0.34961 0 0.69141 0.043945 1.0273 0.095703-0.067383-1.2432-0.12793-2.3672-0.12891-3.376v-4.7119h0.25098c0.15234 0.0039063 0.2959-0.068359 0.57617-0.073242h0.018555c0.57422 0 0.9541 0.28516 1.3164 0.65723zm-1.9111-0.80664v-0.24902h0.25-0.25v0.24902h-0.24902v-3.4873c-0.0019531-0.3623-0.0019531-0.71973 0-1.0811 0-0.71973-0.0019531-1.5996 0.14551-2.5586l0.03125-0.21191h0.21582c0.92383 0 1.71-0.072266 2.3047-0.072266 3.2754 0.0039063 5.1406 1.2305 5.1445 3.5615 0 2.6543-2.3311 3.8477-6.6572 3.8496-0.21582 1e-7 -0.5752 1e-7 -0.93555 1e-7zm0.93555-0.49902c4.3135-0.024414 6.1523-1.1064 6.1582-3.3506-0.012695-1.9873-1.4395-3.0312-4.6455-3.0625-0.51465 0-1.2344 0.061523-2.0869 0.071289-0.11133 0.83398-0.11133 1.6084-0.11133 2.2725v1.0811 2.9883c0.26953-1e-7 0.52051-1e-7 0.68555-1e-7z"/>
		
	
	
		<path d="m237.04 68.675c0.86426 1.8008 2.6641 2.8809 4.752 2.8809 2.4482 0 4.1045-1.3691 4.1045-3.6006 0-1.584-0.93652-2.376-2.8809-3.0244l-2.3037-0.86328c-2.5918-0.93652-3.8877-2.0879-3.8877-4.1045 0-2.7354 2.4473-4.6797 6.1191-4.6797 1.584 0 2.9531 0.28809 4.3203 0.86426-0.28711 0.57617-0.57617 1.2236-0.79199 1.8711-1.0078-1.2236-2.3037-1.8711-3.96-1.8711-2.0879 0-3.4551 1.2236-3.4551 3.0234 0 1.4404 0.93555 2.2324 2.8789 3.0244l2.377 0.79199c2.5918 1.0078 3.7441 2.1602 3.7441 4.248 0 3.168-2.6641 5.2559-6.7686 5.2559-1.8721 0-3.6006-0.43164-4.8955-1.2959 0.35937-0.79199 0.5752-1.6563 0.64746-2.5205z" clip-rule="evenodd" fill-rule="evenodd"/>
		<path d="m236.25 71.401-0.17578-0.11816 0.087891-0.19238c0.3457-0.76465 0.55664-1.6016 0.62598-2.4375l0.077148-0.90723 0.39746 0.81934c0.82227 1.7119 2.5234 2.7363 4.5273 2.7402 2.3584-0.020508 3.8418-1.2637 3.8535-3.3506-0.014648-1.458-0.78613-2.125-2.7188-2.792l-2.2998-0.86133c-2.6152-0.92871-4.0625-2.1875-4.0537-4.3398 0.0058594-2.9092 2.6211-4.9229 6.3701-4.9297 1.6123 0 3.0215 0.2959 4.417 0.88379l0.24316 0.10254-0.11621 0.24023c-0.28418 0.56641-0.56934 1.207-0.78027 1.8369l-0.14355 0.43164-0.28613-0.35059c-0.97168-1.1738-2.1768-1.7764-3.7656-1.7803-1.9932 0.016602-3.1943 1.1172-3.2051 2.7734 0.0058594 1.2988 0.79004 1.9912 2.707 2.7881l2.3877 0.7959c2.6191 0.99707 3.9199 2.2773 3.9033 4.4814-0.0058594 3.334-2.8398 5.499-7.0166 5.5049-1.9102 0-3.6855-0.4375-5.0361-1.3389zm5.0361 0.83887c4.0303-0.018555 6.5117-2.0039 6.5186-5.0049-0.017578-1.9746-1.0205-2.999-3.5742-4.0117l-2.3926-0.79688c-1.9531-0.78223-3.04-1.6748-3.0342-3.2568 0.0029297-1.9443 1.5225-3.2705 3.7061-3.2725 1.5684-0.0058594 2.8584 0.56934 3.8662 1.6357 0.16309-0.43457 0.35156-0.8584 0.54297-1.2559-1.2588-0.49805-2.5186-0.74512-3.9775-0.74707-3.5967 0.014648-5.8701 1.8691-5.8701 4.4316 0.0087891 1.8809 1.1533 2.9238 3.7246 3.8701l2.2959 0.86133c1.9639 0.63184 3.0654 1.5498 3.0508 3.2617-0.0048828 2.373-1.8164 3.8467-4.3525 3.8496-1.9082 9.766e-4 -3.6035-0.87207-4.6016-2.3633-0.10059 0.56738-0.26172 1.126-0.48535 1.6572 1.2217 0.75391 2.832 1.1416 4.583 1.1416z"/>
	
</g>
<rect x="34.083" y="1.875" width="1.25" height="46.375" fill="#FCB034"/>
<rect x="21.558" y="16.167" width="25.831" height="1.5835" fill="#FCB034"/>
</svg>
